<svg width="627" height="427" viewBox="0 0 627 427" fill="none" xmlns="http://www.w3.org/2000/svg">
<path d="M540.921 390.141C571.356 390.141 596.028 365.497 596.028 335.098C596.028 304.699 571.356 280.056 540.921 280.056C510.487 280.056 485.814 304.699 485.814 335.098C485.814 365.497 510.487 390.141 540.921 390.141Z" fill="#2F2E41"/>
<path d="M562.205 410.474L578.679 407.495L573.336 373.137L556.862 376.116L562.205 410.474Z" fill="#2F2E41"/>
<path d="M529.258 411.554L545.732 408.575L540.388 379.095L523.915 382.073L529.258 411.554Z" fill="#2F2E41"/>
<path d="M538.003 417.758C543.883 412.785 547.135 406.967 545.268 404.765C543.401 402.563 537.121 404.809 531.241 409.783C525.361 414.757 522.108 420.574 523.976 422.776C525.843 424.979 532.123 422.732 538.003 417.758Z" fill="#2F2E41"/>
<path d="M570.264 416.802C576.144 411.828 579.396 406.011 577.529 403.809C575.662 401.606 569.381 403.853 563.502 408.827C557.622 413.801 554.369 419.618 556.236 421.82C558.104 424.022 564.384 421.776 570.264 416.802Z" fill="#2F2E41"/>
<path d="M537.063 340.447C547.465 340.447 555.897 332.024 555.897 321.635C555.897 311.245 547.465 302.823 537.063 302.823C526.662 302.823 518.229 311.245 518.229 321.635C518.229 332.024 526.662 340.447 537.063 340.447Z" fill="white"/>
<path d="M529.323 321.162C532.79 321.162 535.601 318.355 535.601 314.892C535.601 311.428 532.79 308.621 529.323 308.621C525.855 308.621 523.045 311.428 523.045 314.892C523.045 318.355 525.855 321.162 529.323 321.162Z" fill="#3F3D56"/>
<path d="M584.393 275.218C585.222 254.84 567.638 237.58 545.12 236.667C522.601 235.753 503.675 251.532 502.846 271.909C502.017 292.287 517.671 296.917 540.189 297.831C562.708 298.744 583.564 295.596 584.393 275.218Z" fill="#1B89EF"/>
<path d="M516.894 331.219C517.962 326.568 506.803 320.045 491.97 316.649C477.137 313.253 464.248 314.271 463.18 318.922C462.113 323.573 473.272 330.096 488.105 333.492C502.938 336.888 515.827 335.87 516.894 331.219Z" fill="#2F2E41"/>
<path d="M625.067 349.187C626.135 344.536 614.976 338.013 600.143 334.617C585.31 331.221 572.421 332.239 571.353 336.89C570.286 341.541 581.445 348.064 596.278 351.46C611.111 354.856 624 353.838 625.067 349.187Z" fill="#2F2E41"/>
<path d="M556.056 356.79C556.351 358.411 556.324 360.074 555.975 361.685C555.626 363.295 554.963 364.821 554.023 366.175C553.084 367.53 551.886 368.686 550.499 369.577C549.112 370.469 547.563 371.079 545.939 371.373C544.316 371.666 542.651 371.638 541.039 371.288C539.427 370.938 537.9 370.275 536.544 369.336C535.189 368.396 534.032 367.199 533.14 365.813C532.248 364.427 531.639 362.879 531.346 361.258C530.111 354.442 535.386 352.031 542.21 350.797C549.034 349.563 554.821 349.974 556.056 356.79Z" fill="white"/>
<path d="M254.502 371.56L252.586 396.437L271.106 398.35L266.636 368.371L254.502 371.56Z" fill="#FFB9B9"/>
<path d="M189.978 145.021H189.978C205.764 149.88 214.184 168.004 208.786 185.503L201.927 207.734L195.081 205.627L193.659 196.17L192.109 204.712L148.109 191.169L146.816 182.572L145.407 190.338L140.453 188.813L145.838 171.357C152.05 151.221 171.812 139.43 189.978 145.021Z" fill="#2F2E41"/>
<path d="M165.46 211.749C164.033 211.512 162.573 211.577 161.172 211.938C159.771 212.299 158.462 212.949 157.328 213.846C156.194 214.743 155.261 215.867 154.588 217.146C153.915 218.425 153.517 219.83 153.421 221.272C153.146 225.126 154.478 229.639 160.46 232.981C173.237 240.118 200.945 255.679 200.945 255.679L253.811 265.82C253.811 265.82 280.527 287.113 283.874 275.002C287.221 262.892 258.524 255.498 258.524 255.498L209.956 243.057L179.008 220.698C179.008 220.698 173.337 213.137 165.46 211.749Z" fill="#FFB9B9"/>
<path d="M148.563 261.362L153.877 276.319L185.759 268.599L177.547 257.502L148.563 261.362Z" fill="#FFB9B9"/>
<path d="M63.302 402.011L39.1492 399.598L56.0564 383.193L68.1331 391.396L63.302 402.011Z" fill="#FFB9B9"/>
<path d="M184.394 195.08C195.35 195.08 204.231 186.209 204.231 175.266C204.231 164.323 195.35 155.452 184.394 155.452C173.438 155.452 164.557 164.323 164.557 175.266C164.557 186.209 173.438 195.08 184.394 195.08Z" fill="#FFB9B9"/>
<path d="M168.852 178.372C168.852 178.372 157.741 191.4 151.944 193.33C146.148 195.26 131.656 213.595 138.902 225.657C146.148 237.72 172.716 222.762 172.716 222.762L171.75 210.7C171.75 210.7 182.861 191.4 185.276 189.952C187.691 188.505 168.852 178.372 168.852 178.372Z" fill="#FFB9B9"/>
<path d="M166.92 201.668C159.534 190.56 142.402 192.548 138.153 205.188C138.077 205.413 138.005 205.642 137.936 205.874C134.071 218.902 139.868 241.097 139.868 241.097L148.563 267.152C148.563 267.152 171.267 256.537 187.691 274.389L185.276 256.054C185.276 256.054 192.039 240.614 183.344 229.517C177.81 222.454 172.668 210.311 166.92 201.668Z" fill="#575A89"/>
<path d="M52.6748 398.633L51.7087 405.87C51.7087 405.87 19.8265 399.598 13.0636 405.388C6.30069 411.178 6.30069 415.038 0.986989 411.178C-1.27133 409.538 0.658501 405.544 3.62448 401.494C8.32164 395.139 14.4945 390.02 21.6117 386.576C29.584 382.677 40.5982 377.012 40.5982 375.473C40.5982 373.061 49.2934 365.823 52.6748 369.683C56.0563 373.543 62.3361 384.158 62.3361 384.158L52.6748 398.633Z" fill="#2F2E41"/>
<path d="M251.52 384.955C251.52 384.955 244.44 410.03 247.014 411.316C249.589 412.602 254.739 416.46 262.463 416.46C267.027 416.46 273.839 418.929 278.649 420.95C284.256 423.342 290.347 424.389 296.432 424.005C300.486 423.726 303.933 422.777 303.66 420.317C303.016 414.531 290.786 413.245 290.786 413.245L277.912 396.528C277.912 396.528 275.659 385.92 273.728 385.92C272.676 385.97 271.643 385.626 270.831 384.955L251.52 384.955Z" fill="#2F2E41"/>
<path d="M179.16 151.248C181.104 149.826 183.351 148.871 185.724 148.457C188.098 148.043 190.535 148.181 192.847 148.86L193.409 149.032C204.228 152.363 209.982 164.841 206.26 176.905V176.905L202.635 175.789L203.423 171.157L201.191 175.344L179.689 168.726L179.05 164.406L178.338 168.31L174.108 167.008C169.113 176.192 168.929 186.856 173.554 199.001L166.348 196.783L165.069 188.143L163.646 195.952L149.91 191.724L152.553 173.569C156.555 160.595 167.496 151.917 179.16 151.248Z" fill="#2F2E41"/>
<path d="M432.088 33.8068H267.965V340.619H432.088V33.8068Z" fill="#F2F2F2"/>
<path d="M471.681 341.256H267.327V0H471.681V341.256ZM268.604 339.981H470.404V1.27572H268.604V339.981Z" fill="#3F3D56"/>
<path d="M446.776 179.239H292.232V37.6338H446.776V179.239ZM293.51 177.964H445.498V38.9095H293.51V177.964Z" fill="#3F3D56"/>
<path d="M293.322 141.694L292.419 140.792L340.585 92.6827L368.865 120.93L445.366 44.5183L446.269 45.4202L368.865 122.734L340.585 94.4865L293.322 141.694Z" fill="#3F3D56"/>
<path d="M340.767 103.334C346.057 103.334 350.346 99.05 350.346 93.7658C350.346 88.4816 346.057 84.1979 340.767 84.1979C335.476 84.1979 331.187 88.4816 331.187 93.7658C331.187 99.05 335.476 103.334 340.767 103.334Z" fill="#1B89EF"/>
<path d="M369.504 129.486C374.794 129.486 379.083 125.202 379.083 119.918C379.083 114.634 374.794 110.35 369.504 110.35C364.214 110.35 359.925 114.634 359.925 119.918C359.925 125.202 364.214 129.486 369.504 129.486Z" fill="#1B89EF"/>
<path d="M446.137 54.2183C451.427 54.2183 455.716 49.9346 455.716 44.6503C455.716 39.3661 451.427 35.0824 446.137 35.0824C440.847 35.0824 436.558 39.3661 436.558 44.6503C436.558 49.9346 440.847 54.2183 446.137 54.2183Z" fill="#1B89EF"/>
<path d="M427.617 218.787H311.391V230.268H427.617V218.787Z" fill="#3F3D56"/>
<path d="M396.325 313.19H342.682V259.61H379.083V260.886H343.96V311.915H395.048V286.4H396.325V313.19Z" fill="#3F3D56"/>
<path d="M369.227 299.215L357.881 284.104L361.968 281.042L369.78 291.446L405.695 255.574L409.307 259.181L369.227 299.215Z" fill="#1B89EF"/>
<path d="M187.933 275.596C187.933 275.596 176.339 260.156 152.669 269.323L148.321 281.386C148.321 281.386 123.202 301.168 137.211 331.566L136.245 376.921L132.38 389.948L62.3361 384.158L59.9208 406.353L72.4805 407.318C72.4805 407.318 143.491 435.303 154.601 417.933C165.712 400.563 188.899 332.048 188.899 332.048L249.044 341.044C249.044 341.044 247.284 359.845 249.216 362.257C251.148 364.67 250.182 374.802 251.148 376.732C252.114 378.662 251.309 383.68 251.309 383.68L271.265 383.021V373.371C271.265 373.371 273.68 360.344 273.68 356.966C273.68 353.589 288.172 309.199 263.053 305.339C237.934 301.479 194.696 294.413 194.696 294.413L187.933 275.596Z" fill="#2F2E41"/>
<path d="M165.363 200.178C164.753 198.624 163.823 197.215 162.635 196.042C161.446 194.868 160.025 193.956 158.462 193.364C156.899 192.772 155.23 192.514 153.561 192.605C151.893 192.696 150.262 193.135 148.773 193.894C144.783 195.905 141.091 199.898 141.317 207.805C141.8 224.692 142.766 261.362 142.766 261.362L164.021 319.744C164.021 319.744 158.707 358.827 172.716 354.967C186.725 351.107 177.064 318.297 177.064 318.297L160.64 262.809L164.504 218.902C164.504 218.902 168.652 208.804 165.363 200.178Z" fill="#FFB9B9"/>
</svg>
