<svg width="871" height="544" viewBox="0 0 871 544" fill="none" xmlns="http://www.w3.org/2000/svg">
<path d="M227.635 331.536C319.151 331.536 393.339 257.319 393.339 165.768C393.339 74.217 319.151 0 227.635 0C136.12 0 61.9319 74.217 61.9319 165.768C61.9319 257.319 136.12 331.536 227.635 331.536Z" fill="#F2F2F2"/>
<path d="M0 39.8018C0 100.115 37.8224 148.919 84.5637 148.919Z" fill="#2F2E41"/>
<path d="M84.5637 148.919C84.5637 87.9287 126.771 38.5757 178.932 38.5757Z" fill="#1C79BC"/>
<path d="M30.639 45.2693C30.639 102.56 54.7577 148.919 84.5637 148.919Z" fill="#1C79BC"/>
<path d="M84.5637 148.919C84.5637 70.9868 133.349 7.92474 193.639 7.92474Z" fill="#2F2E41"/>
<path d="M66.7737 149.689C66.7737 149.689 78.7663 149.319 82.3805 146.745C85.9948 144.17 100.828 141.096 101.725 145.225C102.621 149.354 119.747 165.762 106.208 165.871C92.6682 165.98 74.7479 163.761 71.1406 161.563C67.5333 159.365 66.7737 149.689 66.7737 149.689Z" fill="#A8A8A8"/>
<path opacity="0.2" d="M106.449 164.433C92.9098 164.543 74.9895 162.324 71.3822 160.125C68.6351 158.451 67.5404 152.445 67.1741 149.673C66.9204 149.684 66.7737 149.689 66.7737 149.689C66.7737 149.689 67.5333 159.365 71.1406 161.563C74.7479 163.761 92.6682 165.98 106.208 165.871C110.116 165.839 111.466 164.448 111.392 162.388C110.849 163.633 109.358 164.41 106.449 164.433Z" fill="black"/>
<path d="M154.508 350.168C234.853 350.168 299.985 341.304 299.985 330.369C299.985 319.435 234.853 310.57 154.508 310.57C74.1634 310.57 9.03131 319.435 9.03131 330.369C9.03131 341.304 74.1634 350.168 154.508 350.168Z" fill="#3F3D56"/>
<path opacity="0.1" d="M154.508 346.992C221.963 346.992 276.646 339.549 276.646 330.369C276.646 321.189 221.963 313.747 154.508 313.747C87.0529 313.747 32.3698 321.189 32.3698 330.369C32.3698 339.549 87.0529 346.992 154.508 346.992Z" fill="black"/>
<path d="M650.84 544C772.431 544 871 530.585 871 514.037C871 497.489 772.431 484.074 650.84 484.074C529.249 484.074 430.68 497.489 430.68 514.037C430.68 530.585 529.249 544 650.84 544Z" fill="#3F3D56"/>
<path d="M241.638 520.362C314.679 520.362 373.89 512.304 373.89 502.363C373.89 492.423 314.679 484.365 241.638 484.365C168.598 484.365 109.387 492.423 109.387 502.363C109.387 512.304 168.598 520.362 241.638 520.362Z" fill="#3F3D56"/>
<path d="M359.887 487.187C429.902 505.087 564.488 463.84 579.269 417.144" stroke="#2F2E41" stroke-width="2" stroke-miterlimit="10"/>
<path d="M240.86 201.568C240.86 201.568 341.994 173.551 348.218 263.828C354.441 354.106 264.977 379.788 334.992 397.688" stroke="#2F2E41" stroke-width="2" stroke-miterlimit="10"/>
<path d="M143.152 418.143C143.152 418.143 173.548 409.723 175.419 436.856C177.289 463.989 150.4 471.709 171.444 477.088" stroke="#2F2E41" stroke-width="2" stroke-miterlimit="10"/>
<path d="M605.793 438.344L599.665 477.486C599.665 477.486 569.495 493.521 590.708 493.992C611.922 494.464 711.861 493.992 711.861 493.992C711.861 493.992 731.189 493.992 700.547 477.015L694.419 435.986L605.793 438.344Z" fill="#2F2E41"/>
<path opacity="0.1" d="M586.441 493.568C591.258 489.279 599.665 484.811 599.665 484.811L605.793 445.668L694.419 445.752L700.547 484.339C707.692 488.298 712.119 491.333 714.708 493.661C718.644 492.763 722.945 489.425 700.547 477.015L694.419 435.986L605.793 438.344L599.665 477.486C599.665 477.486 574.313 490.962 586.441 493.568Z" fill="black"/>
<path d="M835.239 165.526H464.031C456.277 165.526 449.992 171.814 449.992 179.57V429.723C449.992 437.48 456.277 443.767 464.031 443.767H835.239C842.992 443.767 849.277 437.48 849.277 429.723V179.57C849.277 171.814 842.992 165.526 835.239 165.526Z" fill="#2F2E41"/>
<path d="M835.842 180.381H463.427V388.826H835.842V180.381Z" fill="#3F3D56"/>
<path d="M649.635 176.137C650.936 176.137 651.992 175.081 651.992 173.779C651.992 172.476 650.936 171.421 649.635 171.421C648.333 171.421 647.278 172.476 647.278 173.779C647.278 175.081 648.333 176.137 649.635 176.137Z" fill="#F2F2F2"/>
<path d="M849.277 405.332V429.723C849.277 431.568 848.914 433.394 848.209 435.098C847.504 436.802 846.47 438.35 845.166 439.655C843.862 440.959 842.315 441.993 840.611 442.699C838.908 443.405 837.082 443.768 835.239 443.767H464.031C462.187 443.768 460.361 443.405 458.658 442.699C456.955 441.993 455.407 440.959 454.103 439.655C452.8 438.35 451.766 436.802 451.06 435.098C450.355 433.394 449.992 431.568 449.992 429.723V405.332H849.277Z" fill="#2F2E41"/>
<path d="M753.817 519.459V524.175H500.197V520.402L500.546 519.459L506.797 502.481H748.631L753.817 519.459Z" fill="#2F2E41"/>
<path d="M851.418 514.842C850.956 516.818 849.211 518.902 845.27 520.873C831.128 527.947 802.372 518.987 802.372 518.987C802.372 518.987 780.216 515.214 780.216 505.311C780.838 504.884 781.486 504.499 782.158 504.155C788.104 501.008 807.818 493.243 842.774 504.484C845.349 505.293 847.649 506.801 849.418 508.84C850.835 510.499 851.946 512.603 851.418 514.842Z" fill="#2F2E41"/>
<path opacity="0.1" d="M851.417 514.842C834.107 521.477 818.678 521.972 802.843 510.97C794.857 505.424 787.603 504.051 782.158 504.155C788.104 501.008 807.818 493.243 842.774 504.484C845.349 505.293 847.649 506.801 849.418 508.84C850.835 510.499 851.945 512.603 851.417 514.842Z" fill="black"/>
<path d="M829.714 510.97C833.098 510.97 835.842 510.125 835.842 509.083C835.842 508.042 833.098 507.197 829.714 507.197C826.329 507.197 823.585 508.042 823.585 509.083C823.585 510.125 826.329 510.97 829.714 510.97Z" fill="#F2F2F2"/>
<path d="M649.635 433.628C654.581 433.628 658.591 429.616 658.591 424.668C658.591 419.719 654.581 415.707 649.635 415.707C644.688 415.707 640.678 419.719 640.678 424.668C640.678 429.616 644.688 433.628 649.635 433.628Z" fill="#F2F2F2"/>
<path opacity="0.1" d="M753.817 519.458V524.175H500.197V520.402L500.546 519.458H753.817Z" fill="black"/>
<path d="M246.306 123.742H84.4924V312.08H246.306V123.742Z" fill="#2F2E41"/>
<path d="M262.643 105.064H68.1555V171.994H262.643V105.064Z" fill="#3F3D56"/>
<path d="M262.643 184.446H68.1555V251.376H262.643V184.446Z" fill="#3F3D56"/>
<path d="M262.643 263.828H68.1555V330.758H262.643V263.828Z" fill="#3F3D56"/>
<path opacity="0.4" d="M223.746 116.738H211.298V129.19H223.746V116.738Z" fill="#1C79BC"/>
<path opacity="0.8" d="M241.638 116.738H229.191V129.19H241.638V116.738Z" fill="#1C79BC"/>
<path d="M259.531 116.738H247.084V129.19H259.531V116.738Z" fill="#1C79BC"/>
<path opacity="0.4" d="M223.746 195.342H211.298V207.794H223.746V195.342Z" fill="#1C79BC"/>
<path opacity="0.8" d="M241.638 195.342H229.191V207.794H241.638V195.342Z" fill="#1C79BC"/>
<path d="M259.531 195.342H247.084V207.794H259.531V195.342Z" fill="#1C79BC"/>
<path opacity="0.4" d="M223.746 273.946H211.298V286.398H223.746V273.946Z" fill="#1C79BC"/>
<path opacity="0.8" d="M241.638 273.946H229.191V286.398H241.638V273.946Z" fill="#1C79BC"/>
<path d="M259.531 273.946H247.084V286.398H259.531V273.946Z" fill="#1C79BC"/>
<path d="M246.306 480.183C280.248 480.183 307.764 452.657 307.764 418.701C307.764 384.745 280.248 357.219 246.306 357.219C212.364 357.219 184.848 384.745 184.848 418.701C184.848 452.657 212.364 480.183 246.306 480.183Z" fill="#2F2E41"/>
<path d="M236.971 466.953H218.3V500.418H236.971V466.953Z" fill="#2F2E41"/>
<path d="M274.312 466.953H255.641V500.418H274.312V466.953Z" fill="#2F2E41"/>
<path d="M233.859 506.644C242.452 506.644 249.418 504.031 249.418 500.807C249.418 497.583 242.452 494.97 233.859 494.97C225.266 494.97 218.3 497.583 218.3 500.807C218.3 504.031 225.266 506.644 233.859 506.644Z" fill="#2F2E41"/>
<path d="M271.2 505.865C279.793 505.865 286.759 503.252 286.759 500.029C286.759 496.805 279.793 494.192 271.2 494.192C262.607 494.192 255.641 496.805 255.641 500.029C255.641 503.252 262.607 505.865 271.2 505.865Z" fill="#2F2E41"/>
<path d="M247.862 424.149C259.462 424.149 268.867 414.741 268.867 403.136C268.867 391.531 259.462 382.123 247.862 382.123C236.261 382.123 226.857 391.531 226.857 403.136C226.857 414.741 236.261 424.149 247.862 424.149Z" fill="white"/>
<path d="M247.862 410.14C251.729 410.14 254.864 407.004 254.864 403.136C254.864 399.268 251.729 396.132 247.862 396.132C243.995 396.132 240.86 399.268 240.86 403.136C240.86 407.004 243.995 410.14 247.862 410.14Z" fill="#3F3D56"/>
<path d="M186.69 361.524C181.727 339.292 197.59 316.826 222.121 311.347C246.651 305.867 270.56 319.448 275.522 341.681C280.485 363.914 264.228 372.114 239.697 377.593C215.167 383.073 191.652 383.757 186.69 361.524Z" fill="#1C79BC"/>
<path d="M303.948 406.438C319.55 399.758 330.499 390.37 328.402 385.47C326.306 380.571 311.958 382.014 296.356 388.694C280.754 395.375 269.805 404.762 271.902 409.662C273.998 414.562 288.346 413.119 303.948 406.438Z" fill="#2F2E41"/>
<path d="M188.811 447.686C204.413 441.006 215.362 431.618 213.266 426.718C211.169 421.818 196.822 423.261 181.22 429.942C165.617 436.622 154.669 446.01 156.765 450.91C158.861 455.81 173.209 454.366 188.811 447.686Z" fill="#2F2E41"/>
<path d="M282.092 436.601C282.092 442.618 266.604 454.501 249.418 454.501C232.232 454.501 215.966 443.397 215.966 437.379C215.966 431.362 232.232 432.71 249.418 432.71C266.604 432.71 282.092 430.583 282.092 436.601Z" fill="white"/>
</svg>
