<svg width="554" height="399" viewBox="0 0 554 399" fill="none" xmlns="http://www.w3.org/2000/svg">
<g clip-path="url(#clip0)">
<path opacity="0.1" d="M235.688 15.3387C213.169 6.52311 189.371 -0.840746 165.078 0.0849959C129.359 1.44205 95.0714 22.1292 78.28 52.5051C64.0333 78.2418 62.2755 108.407 56.1384 136.969C48.5858 172.152 34.0939 205.6 18.6208 238.3C10.312 255.869 1.54322 273.815 0.178849 293.072C-1.71185 319.808 11.5588 346.449 32.3718 364.233C53.1848 382.017 80.8248 391.4 108.567 393.446C123.33 394.535 138.757 393.525 151.869 386.908C165.743 379.907 175.855 367.257 189.785 360.356C202.693 353.96 217.793 353.066 232.285 353.897C251.207 354.982 269.885 358.807 287.769 365.259C308.025 372.58 326.861 383.19 347.045 390.617C367.23 398.044 389.836 402.188 410.491 395.992C429.909 390.169 445.239 376.031 459.061 361.713C481.663 338.345 502.379 313.121 521.005 286.292C533.478 268.298 545.088 249.315 550.602 228.343C561.149 188.247 546.637 143.012 514.449 115.629C487.78 92.9432 451.989 83.0967 416.955 77.1214C385.007 71.6722 348.067 71.3356 318.659 57.1338C290.616 43.5738 265.096 26.8579 235.688 15.3387Z" fill="#1C79BC"/>
<path d="M323.248 325.588V344.697H328.527L327.505 324.183L323.248 325.588Z" fill="#AAABB0"/>
<path d="M243.956 321.732V340.841H249.24L248.218 320.328L243.956 321.732Z" fill="#AAABB0"/>
<path d="M336.192 293.681C336.192 291.743 334.667 290.173 332.786 290.173C330.905 290.173 329.38 291.743 329.38 293.681V320.68C329.38 322.618 330.905 324.189 332.786 324.189C334.667 324.189 336.192 322.618 336.192 320.68V293.681Z" fill="#AAABB0"/>
<path d="M248.811 286.138C248.811 284.201 247.286 282.63 245.405 282.63C243.524 282.63 241.999 284.201 241.999 286.138V320.675C241.999 322.612 243.524 324.183 245.405 324.183C247.286 324.183 248.811 322.612 248.811 320.675V286.138Z" fill="#AAABB0"/>
<path d="M344.884 86.6147C344.884 86.6147 351.695 83.6323 352.717 86.6147C353.739 89.597 354.25 115.371 354.25 115.371H347.776L344.884 86.6147Z" fill="#AAABB0"/>
<path d="M270.278 86.6147C270.278 86.6147 263.461 83.6323 262.439 86.6147C261.417 89.597 260.906 115.371 260.906 115.371H267.38L270.278 86.6147Z" fill="#AAABB0"/>
<path d="M271.295 61.0148L270.273 82.4068H274.872V60.4888L271.295 61.0148Z" fill="#AAABB0"/>
<path d="M267.38 115.371L268.745 84.5108C268.745 84.5108 268.234 77.6729 284.412 79.7768C300.59 81.8808 347.95 86.0887 347.95 86.0887V115.371H267.38Z" fill="#33323D"/>
<path d="M332.109 277.901L329.554 325.062C329.554 325.062 292.077 346.454 246.598 326.114L250.686 276.497L332.109 277.901Z" fill="#33323D"/>
<path d="M296.507 92.2217L297.356 122.729H350.162L347.096 82.4067L296.507 92.2217Z" fill="#444053"/>
<path d="M301.873 257.735H252.132V322.605H301.873V257.735Z" fill="#4C4981"/>
<path d="M283.564 284.213C283.564 284.213 290.718 278.427 291.908 280.179C293.099 281.93 287.657 289.473 285.439 288.595C283.221 287.716 283.564 284.213 283.564 284.213Z" fill="#FFB9B9"/>
<path d="M482.118 113.614H155.604V281.93H482.118V113.614Z" fill="#504F60"/>
<path d="M267.549 59.7892C267.549 59.7892 264.994 35.2413 267.549 32.2642C270.104 29.2871 313.028 1.05195 352.717 34.1893C352.717 34.1893 356.463 34.3681 355.783 43.1311C355.383 48.6773 355.41 54.2475 355.865 59.7892C355.865 59.7892 270.446 66.1011 267.549 59.7892Z" fill="#33323D"/>
<path opacity="0.1" d="M267.549 59.7892C267.549 59.7892 264.994 35.2413 267.549 32.2642C270.104 29.2871 313.028 1.05195 352.717 34.1893C352.717 34.1893 356.463 34.3681 355.783 43.1311C355.383 48.6773 355.41 54.2475 355.865 59.7892C355.865 59.7892 270.446 66.1011 267.549 59.7892Z" fill="black"/>
<path d="M267.549 62.9452C267.549 62.9452 264.994 38.3973 267.549 35.4202C270.104 32.4431 313.028 4.20796 352.717 37.3453C352.717 37.3453 356.463 37.5241 355.783 46.2871C355.383 51.8333 355.41 57.4035 355.865 62.9452C355.865 62.9452 270.446 69.2571 267.549 62.9452Z" fill="#33323D"/>
<path d="M357.316 51.7258C357.316 51.7258 360.04 62.2456 359.192 63.9972C358.343 65.7487 358.497 70.6615 358.497 70.6615C358.497 70.6615 358.681 73.8174 357.316 74.1645C355.952 74.5117 354.761 74.6905 355.865 75.7425C356.969 76.7945 355.865 78.3725 355.865 78.3725C355.865 78.3725 355.267 80.8288 355.865 82.4068C356.463 83.9848 352.37 84.6423 352.717 86.6147C353.065 88.5872 354.209 94.1521 352.717 94.331C351.225 94.5098 353.228 101.342 351.884 101.342C350.54 101.342 349.585 113.614 349.585 113.614C349.585 113.614 340.131 105.377 333.831 107.654C333.831 107.654 334.342 100.816 336.386 98.3601C338.43 95.9037 337.811 89.5971 337.811 89.5971L347.95 58.2113L357.316 51.7258Z" fill="#4C4981"/>
<path d="M306.727 196.783C304.515 199.303 302.128 185.848 302.128 185.848C302.128 185.848 295.828 194.79 291.74 188.83C288.909 184.701 291.142 173.003 292.762 166.213C293.487 163.194 294.101 161.142 294.101 161.142L303.299 159.564C303.299 159.564 303.329 161.626 303.534 164.13C303.81 167.512 304.407 171.709 305.68 172.714C307.923 174.455 308.945 194.243 306.727 196.783Z" fill="#AE6E79"/>
<path opacity="0.1" d="M301.96 39.2756C301.96 39.2756 285.945 39.102 282.031 47.865C278.117 56.628 277.943 59.6156 276.41 61.0148C274.877 62.4139 293.099 69.783 293.099 69.783L293.952 99.938C293.952 99.938 297.529 96.2088 303.319 97.8972C309.109 99.5856 316.436 97.8972 316.436 97.8972C316.436 97.8972 316.094 97.2607 320.867 97.8972C325.639 98.5336 340.796 90.2966 340.796 90.2966C340.796 90.2966 341.046 77.1048 340.709 74.296C340.372 71.4872 351.522 50.8474 351.522 50.8474C351.522 50.8474 360.209 42.258 351.184 39.2756C351.184 39.2756 347.991 34.3208 339.774 34.3681C331.557 34.4155 301.96 39.2756 301.96 39.2756Z" fill="black"/>
<path d="M301.96 38.7496C301.96 38.7496 285.945 38.576 282.031 47.339C278.117 56.102 277.943 59.0896 276.41 60.4888C274.877 61.8879 293.099 69.257 293.099 69.257L293.952 99.412C293.952 99.412 297.529 95.6827 303.319 97.3712C309.109 99.0596 316.436 97.3712 316.436 97.3712C316.436 97.3712 316.094 96.7347 320.867 97.3712C325.64 98.0076 340.796 89.7706 340.796 89.7706C340.796 89.7706 346.754 79.7768 346.417 76.9733C346.079 74.1698 358.338 52.9513 358.338 52.9513C358.338 52.9513 360.214 41.732 351.184 38.7496C351.184 38.7496 347.991 33.7948 339.774 33.8421C331.557 33.8895 301.96 38.7496 301.96 38.7496Z" fill="#4C4981"/>
<path opacity="0.1" d="M303.574 164.114C300.064 162.988 294.555 165.471 292.803 166.218C293.528 163.199 294.141 161.147 294.141 161.147L303.339 159.569C303.339 159.569 303.355 161.631 303.574 164.114Z" fill="black"/>
<path d="M281.346 60.4888H276.41C276.41 60.4888 275.388 71.1874 276.41 74.3433C277.432 77.4993 277.943 77.0417 277.6 79.3771C277.258 81.7124 279.987 85.2892 279.987 85.2892C279.987 85.2892 280.324 94.1048 282.031 97.3869C283.738 100.669 280.155 115.386 280.155 115.386C281.132 117.927 282.578 120.249 284.412 122.224C287.309 125.201 288.842 136.247 287.989 140.455C287.136 144.663 290.375 146.241 290.375 146.241C290.375 146.241 291.74 165.881 292.251 165.881C292.762 165.881 302.639 160.621 305.705 165.176L303.319 147.119L303.493 112.23C303.493 112.23 300.253 107.844 301.96 103.988C303.667 100.133 300.595 91.0119 300.595 91.0119L296.165 70.6772L281.346 60.4888Z" fill="#4C4981"/>
<path d="M250.686 337.685C250.686 337.685 243.532 336.107 243.363 337.685C243.195 339.263 234.845 355.396 245.239 360.129C255.633 364.863 283.39 375.031 328.532 361.881C328.532 361.881 331.424 362.933 330.744 356.448C330.065 349.962 330.065 342.772 330.065 342.772C330.065 342.772 323.248 340.841 318.138 341.546C313.028 342.251 268.571 351.54 250.686 337.685Z" fill="#33323D"/>
<path opacity="0.1" d="M250.686 337.685C250.686 337.685 243.532 336.107 243.363 337.685C243.195 339.263 234.845 355.396 245.239 360.129C255.633 364.863 283.39 375.031 328.532 361.881C328.532 361.881 331.424 362.933 330.744 356.448C330.065 349.962 330.065 342.772 330.065 342.772C330.065 342.772 323.248 340.841 318.138 341.546C313.028 342.251 268.571 351.54 250.686 337.685Z" fill="black"/>
<path d="M250.686 335.581C250.686 335.581 243.532 334.003 243.363 335.581C243.195 337.159 234.845 353.292 245.239 358.025C255.633 362.759 283.39 372.927 328.532 359.777C328.532 359.777 331.424 360.829 330.744 354.344C330.065 347.858 330.065 340.668 330.065 340.668C330.065 340.668 323.248 338.737 318.138 339.442C313.028 340.147 268.571 349.436 250.686 335.581Z" fill="#33323D"/>
<path d="M292.404 66.7901C291.965 69.3622 290.968 71.8344 290.815 74.438C290.662 77.0417 291.638 80.003 293.973 81.0234C294.624 81.2238 295.256 81.488 295.858 81.8124C296.758 82.4383 297.126 83.6165 297.315 84.7211C297.566 86.1472 297.626 87.6019 297.494 89.0448C297.366 90.4965 297.064 92.0587 297.759 93.3263C298.981 95.5723 302.164 95.2409 304.586 94.6097L303.753 101.253C303.687 101.779 303.646 102.373 304.019 102.731C304.195 102.859 304.395 102.949 304.605 102.996C304.816 103.043 305.034 103.046 305.246 103.005C307.351 102.868 309.517 102.568 311.321 101.427C313.125 100.285 314.469 98.1602 314.127 96.0194C313.728 93.5367 311.234 91.5643 311.572 89.0711C311.832 87.1407 313.667 85.9151 314.873 84.4318C317.055 81.7177 317.172 77.594 315.46 74.5222C313.749 71.4504 310.442 69.5463 307.039 69.1992C305.154 69.0046 303.191 69.2413 301.418 68.568C300.801 68.335 300.245 67.9584 299.793 67.4675C299.341 66.9766 299.005 66.3847 298.812 65.7382" fill="#444053"/>
<path d="M232.975 300.693L234.758 296.695C234.758 296.695 244.385 287.464 246.598 286.817C248.811 286.17 257.84 283.351 259.204 283.351C260.569 283.351 285.439 281.946 285.439 281.946L288.331 288.963L257.12 296.017L246.598 303.906L232.975 300.693Z" fill="#767D9F"/>
<path d="M307.964 193.038L306.334 205.951L305.705 210.922L298.383 211.974C298.383 211.974 297.591 210.228 296.472 207.545C293.073 199.403 286.676 182.613 290.386 179.715C295.317 175.854 296.518 188.657 296.518 188.657L302.139 185.848L307.964 193.038Z" fill="#FFB9B9"/>
<path d="M306.743 217.06H269.762V274.567H306.743V217.06Z" fill="white"/>
<path opacity="0.1" d="M306.743 217.06H269.762V274.567H306.743V217.06Z" fill="black"/>
<path d="M323.364 220.174L286.78 214.606L278.609 271.495L315.193 277.062L323.364 220.174Z" fill="white"/>
<path d="M309.054 222.897L290.224 220.032L286.019 249.311L304.849 252.177L309.054 222.897Z" fill="#1C79BC"/>
<path d="M129.233 189.672L106.42 186.2L105.507 192.559L128.32 196.031L129.233 189.672Z" fill="#1C79BC"/>
<path opacity="0.1" d="M316.436 71.9711C328.242 71.9711 337.812 62.1204 337.812 49.9689C337.812 37.8175 328.242 27.9668 316.436 27.9668C304.631 27.9668 295.061 37.8175 295.061 49.9689C295.061 62.1204 304.631 71.9711 316.436 71.9711Z" fill="black"/>
<path d="M316.436 71.4452C328.242 71.4452 337.812 61.5945 337.812 49.4431C337.812 37.2916 328.242 27.4409 316.436 27.4409C304.631 27.4409 295.061 37.2916 295.061 49.4431C295.061 61.5945 304.631 71.4452 316.436 71.4452Z" fill="#AE6E79"/>
<path d="M298.812 65.7487C298.667 65.182 298.719 64.5808 298.96 64.0498C299.773 62.3087 302.088 62.1562 303.963 62.2456C308.373 62.456 313.212 62.4823 316.661 59.6157C318.092 58.4375 319.691 55.4761 321.771 56.039C323.621 56.5386 324.393 59.1212 326.319 59.6946C327.714 60.1101 329.16 59.4474 330.581 59.1686C332.625 58.7531 334.72 59.1002 336.795 59.116C338.869 59.1318 341.123 58.7268 342.538 57.1646C344.449 55.0606 344.138 51.7732 343.969 48.8908C343.759 45.1674 344.005 41.4317 344.7 37.7713C345.395 34.1315 346.463 30.0603 344.511 26.9412C342.651 23.9694 338.798 23.1541 336.166 20.8765C333.703 18.7726 332.4 15.401 329.799 13.4496C326.524 10.9932 322.073 11.3456 318.046 11.7717L309.308 12.729C307.054 12.9762 304.709 13.255 302.854 14.6383C299.507 17.1315 299.047 22.3125 295.879 25.0424C294.469 26.2522 292.665 26.8518 291.055 27.7565C289.445 28.6612 287.892 30.0919 287.708 31.9644C287.555 33.5424 288.383 34.9994 288.786 36.5195C289.742 40.1488 288.25 43.8833 287.294 47.539C286.339 51.1946 286.155 55.6339 288.929 58.0587C289.491 58.5532 290.145 58.9319 290.692 59.4474C292.568 61.2094 292.823 64.1813 292.389 66.7481" fill="#444053"/>
<path d="M318.179 76.926C318.461 76.926 318.69 76.3372 318.69 75.611C318.69 74.8848 318.461 74.296 318.179 74.296C317.897 74.296 317.668 74.8848 317.668 75.611C317.668 76.3372 317.897 76.926 318.179 76.926Z" fill="#444053"/>
<path d="M318.179 82.4068C318.461 82.4068 318.69 81.8181 318.69 81.0918C318.69 80.3656 318.461 79.7769 318.179 79.7769C317.897 79.7769 317.668 80.3656 317.668 81.0918C317.668 81.8181 317.897 82.4068 318.179 82.4068Z" fill="#444053"/>
<path d="M306.845 196.746C307.392 196.099 307.755 194.437 307.964 192.244L301.873 184.428C301.873 184.428 304.453 199.581 306.845 196.746Z" fill="#AE6E79"/>
<path opacity="0.1" d="M313.713 325.94C313.713 325.94 303.718 341.846 272.49 340.142C243.072 338.564 228.713 323.662 229.398 318.403C230.083 313.143 227.522 300.34 233.823 296.658C237.477 294.528 242.285 295.79 245.678 297.232C246.851 297.722 248.134 297.86 249.379 297.63C250.624 297.4 251.781 296.811 252.715 295.932C255.816 293.055 261.601 289.815 270.733 292.366C271.908 292.689 273.147 292.665 274.31 292.298C278.111 291.104 287.161 289.031 293.728 293.634C294.765 294.37 295.985 294.787 297.245 294.837C298.504 294.886 299.751 294.565 300.841 293.913L300.933 293.855C303.999 291.924 318.307 310.16 318.307 310.16C318.307 310.16 318.991 324.188 313.713 325.94Z" fill="black"/>
<path d="M313.713 326.466C313.713 326.466 303.718 342.372 272.49 340.668C243.072 339.09 228.713 324.189 229.398 318.929C230.083 313.669 227.522 300.866 233.823 297.184C237.477 295.054 242.285 296.316 245.678 297.758C246.851 298.248 248.134 298.386 249.379 298.156C250.624 297.926 251.781 297.337 252.715 296.458C255.816 293.581 261.601 290.341 270.733 292.892C271.908 293.215 273.147 293.191 274.31 292.824C278.111 291.63 287.161 289.557 293.728 294.16C294.765 294.896 295.985 295.313 297.245 295.363C298.504 295.412 299.751 295.091 300.841 294.439L300.933 294.381C303.999 292.45 318.307 310.686 318.307 310.686C318.307 310.686 318.991 324.715 313.713 326.466Z" fill="#767D9F"/>
<path opacity="0.1" d="M272.49 332.694C283.734 332.694 292.849 323.312 292.849 311.738C292.849 300.165 283.734 290.783 272.49 290.783C261.247 290.783 252.132 300.165 252.132 311.738C252.132 323.312 261.247 332.694 272.49 332.694Z" fill="black"/>
<path d="M272.49 333.22C283.734 333.22 292.849 323.838 292.849 312.264C292.849 300.691 283.734 291.309 272.49 291.309C261.247 291.309 252.132 300.691 252.132 312.264C252.132 323.838 261.247 333.22 272.49 333.22Z" fill="#FFB9B9"/>
<path d="M266.655 294.149C264.519 294.744 262.413 295.88 261.371 297.747C260.743 298.873 260.523 300.224 259.613 301.161C258.325 302.491 256.154 302.518 254.411 303.265C252.669 304.011 251.519 306.641 253.226 307.473C251.447 307.567 250.129 309.256 249.909 310.933C249.69 312.611 250.308 314.284 250.906 315.883C252.858 321.059 254.958 326.461 259.261 330.143C266.272 336.149 276.839 335.871 286.257 335.234C287.026 335.26 287.789 335.079 288.469 334.708C289.491 334.014 289.619 332.683 289.788 331.515C290.498 326.529 293.125 322 294.842 317.24C296.558 312.48 297.264 306.889 294.371 302.675C290.115 296.427 273.819 292.15 266.655 294.149Z" fill="#B96B6B"/>
<path opacity="0.1" d="M306.334 205.951L305.705 210.922L298.383 211.974C298.383 211.974 297.591 210.228 296.472 207.545L306.216 205.662L306.334 205.951Z" fill="black"/>
<path d="M314.05 315.773L318.312 310.686L317.458 282.635C317.878 280.611 318.163 278.561 318.312 276.497C318.48 273.515 316.181 266.856 316.181 266.856C316.538 265.523 317.022 264.229 317.627 262.995C318.649 260.891 316.186 256.157 316.186 256.157C316.186 256.157 312.517 243.886 314.05 237.747C315.583 231.609 313.677 228.106 313.677 228.106C313.677 228.106 312.18 221.268 312.348 218.464C312.517 215.661 308.94 213.026 308.94 213.026L306.216 206.188L295.317 208.292V231.961C295.317 231.961 295.996 254.579 295.317 258.966C294.637 263.352 296.676 267.555 296.676 267.555C296.676 267.555 295.485 274.041 296.507 276.497C297.529 278.953 299.573 284.913 299.573 284.913C299.194 287.043 299.311 289.235 299.916 291.309C300.938 294.381 299.916 296.132 299.916 296.132L314.05 315.773Z" fill="#767D9F"/>
<g opacity="0.1">
<path opacity="0.1" d="M344.715 36.0407C344.139 39.1197 343.88 42.2527 343.943 45.3876C343.987 42.7809 344.252 40.1832 344.735 37.624C345.185 35.2886 345.757 32.7743 345.635 30.4442C345.446 32.3283 345.139 34.1977 344.715 36.0407V36.0407Z" fill="black"/>
<path opacity="0.1" d="M290.708 57.7536C290.161 57.2276 289.507 56.8594 288.945 56.3597C287.452 55.05 286.824 53.1512 286.701 51.0999C286.553 53.7298 287.074 56.2756 288.945 57.9377C289.507 58.4374 290.161 58.8161 290.708 59.3316C291.851 60.4958 292.513 62.069 292.557 63.7236C292.706 61.5144 292.271 59.2159 290.708 57.7536Z" fill="black"/>
<path opacity="0.1" d="M289.077 38.1131C289.167 37.0022 289.074 35.8837 288.802 34.8047C288.505 33.6791 287.974 32.5797 287.78 31.4489C287.78 31.5698 287.739 31.6961 287.723 31.8276C287.575 33.4055 288.403 34.8625 288.802 36.3826C288.948 36.9488 289.041 37.5284 289.077 38.1131V38.1131Z" fill="black"/>
<path opacity="0.1" d="M342.554 55.434C341.138 57.012 338.885 57.4012 336.81 57.3854C334.735 57.3696 332.635 57.0225 330.596 57.4433C329.176 57.7378 327.729 58.3953 326.334 57.9693C324.408 57.3959 323.636 54.8133 321.792 54.3136C319.691 53.7456 318.092 56.7069 316.682 57.8851C313.232 60.7255 308.393 60.6992 303.983 60.5151C302.108 60.4256 299.793 60.5782 298.986 62.3245C298.739 62.854 298.687 63.4572 298.838 64.0234L292.593 65.0333C292.57 65.5625 292.513 66.0895 292.425 66.6113L298.838 65.5593C298.687 64.9931 298.739 64.3899 298.986 63.8604C299.793 62.1141 302.108 61.9615 303.983 62.0509C308.393 62.2613 313.232 62.2876 316.682 59.421C318.113 58.2428 319.712 55.2815 321.792 55.8495C323.636 56.344 324.408 58.9318 326.334 59.5052C327.729 59.9154 329.176 59.2579 330.596 58.9792C332.64 58.5584 334.735 58.9055 336.81 58.9213C338.885 58.9371 341.138 58.5321 342.554 56.9699C343.969 55.4077 344.173 53.0776 344.087 50.8053C344.025 52.5674 343.673 54.1979 342.554 55.434Z" fill="black"/>
</g>
<g opacity="0.1">
<path opacity="0.1" d="M295.25 80.6973C294.649 80.3711 294.017 80.1068 293.365 79.9083C292.256 79.3896 291.375 78.4628 290.897 77.3099C291.28 79.1246 292.251 80.7762 293.876 81.4863C294.528 81.6848 295.16 81.9491 295.761 82.2753C296.146 82.5551 296.457 82.9293 296.666 83.3641C296.461 82.3331 296.088 81.2812 295.25 80.6973Z" fill="black"/>
<path opacity="0.1" d="M303.978 93.4946C301.623 94.11 298.546 94.4309 297.253 92.3743C297.294 92.8698 297.433 93.3515 297.662 93.7892C298.766 95.8142 301.464 95.7459 303.758 95.2462L303.978 93.4946Z" fill="black"/>
<path opacity="0.1" d="M313.524 94.9358C313.851 97.0713 312.502 99.2016 310.713 100.322C308.925 101.442 306.743 101.753 304.637 101.9C304.303 101.944 303.962 101.905 303.646 101.784C303.55 102.007 303.519 102.253 303.557 102.493C303.595 102.733 303.7 102.957 303.859 103.137C304.019 103.316 304.226 103.444 304.454 103.505C304.683 103.565 304.925 103.556 305.148 103.478C307.254 103.341 309.42 103.041 311.224 101.9C313.028 100.758 314.377 98.6335 314.03 96.4927C313.931 95.9522 313.761 95.4283 313.524 94.9358V94.9358Z" fill="black"/>
<path opacity="0.1" d="M315.792 75.895C316.104 77.1739 316.129 78.5092 315.863 79.799C315.597 81.0889 315.049 82.2992 314.259 83.3378C313.054 84.8421 311.219 86.0466 310.958 87.977C310.871 88.8645 311.05 89.7582 311.469 90.5386C311.423 90.2124 311.423 89.8811 311.469 89.555C311.73 87.6246 313.565 86.399 314.77 84.9157C316.753 82.4488 317.029 78.8143 315.792 75.895Z" fill="black"/>
</g>
<g opacity="0.1">
<path opacity="0.1" d="M254.416 304.075C256.154 303.333 258.326 303.307 259.618 301.971C260.528 301.034 260.748 299.683 261.376 298.562C262.398 296.69 264.519 295.559 266.655 294.965C273.809 292.966 290.12 297.237 294.371 303.428C295.617 305.301 296.297 307.512 296.323 309.782C296.487 307.161 295.803 304.558 294.377 302.381C290.125 296.19 273.829 291.919 266.66 293.918C264.524 294.512 262.419 295.643 261.381 297.516C260.753 298.636 260.533 299.988 259.623 300.924C258.331 302.255 256.159 302.281 254.421 303.028C253.098 303.591 252.117 305.253 252.475 306.368C252.617 305.864 252.865 305.397 253.2 305.001C253.535 304.605 253.95 304.289 254.416 304.075V304.075Z" fill="black"/>
<path opacity="0.1" d="M249.92 311.717C250.134 310.034 251.453 308.351 253.236 308.256C253.049 308.176 252.881 308.053 252.746 307.898C252.611 307.742 252.511 307.557 252.454 307.357C251.776 307.616 251.179 308.062 250.729 308.645C250.279 309.228 249.992 309.927 249.899 310.665C249.851 311.093 249.851 311.526 249.899 311.954C249.92 311.875 249.92 311.796 249.92 311.717Z" fill="black"/>
</g>
<path d="M358.165 121.104H311.664V183.523H358.165V121.104Z" fill="white"/>
<path opacity="0.1" d="M358.165 121.104H311.664V183.523H358.165V121.104Z" fill="black"/>
<path d="M375.931 124.766L330.103 132.88L340.383 194.396L386.211 186.282L375.931 124.766Z" fill="white"/>
<path d="M351.977 172.909L341.21 174.815L343.625 189.268L354.392 187.361L351.977 172.909Z" fill="#1C79BC"/>
<path d="M366.877 170.268L356.109 172.174L358.525 186.627L369.292 184.72L366.877 170.268Z" fill="#1C79BC"/>
<path d="M377.405 149.094L339.646 155.768L342.068 170.286L379.827 163.612L377.405 149.094Z" fill="#1C79BC"/>
<path d="M374.258 131.767L336.498 138.441L337.039 141.68L374.798 135.006L374.258 131.767Z" fill="#1C79BC"/>
<path d="M375.496 137.725L337.737 144.399L338.277 147.638L376.037 140.964L375.496 137.725Z" fill="#1C79BC"/>
<path d="M337.811 104.146C337.811 104.146 316.436 126.238 327.167 131.85C337.898 137.462 344.884 113.177 344.884 113.177L346.58 107.654L337.811 104.146Z" fill="#AE6E79"/>
<path opacity="0.1" d="M335.941 102.195L333.299 108.201C333.299 108.201 346.33 110.084 349.053 114.14L347.439 103.541L345.522 99.0176L335.941 102.195Z" fill="black"/>
<path d="M336.452 101.669L333.81 107.675C333.81 107.675 346.841 109.558 349.564 113.614L347.95 103.015L346.033 98.4916L336.452 101.669Z" fill="#4C4981"/>
<path d="M415.33 212.111L415.049 212.31L415.437 212.489L415.856 212.452L415.908 212.153L415.33 212.111Z" fill="#464A5F"/>
<path opacity="0.1" d="M415.33 212.111L415.049 212.31L415.437 212.489L415.856 212.452L415.908 212.153L415.33 212.111Z" fill="black"/>
<path d="M415.33 212.111L415.044 212.3L414.819 212.016L414.957 211.785L415.085 211.742L415.33 212.111Z" fill="#9C9CA1"/>
<path opacity="0.1" d="M415.33 212.111L415.044 212.3L414.819 212.016L414.957 211.785L415.085 211.742L415.33 212.111Z" fill="black"/>
<path d="M465.628 175.759L444.707 144.658C444.522 144.38 444.285 144.143 444.011 143.96C443.736 143.776 443.429 143.65 443.108 143.589C442.786 143.528 442.455 143.533 442.135 143.604C441.815 143.674 441.512 143.809 441.243 144L394.609 176.948C394.063 177.334 393.689 177.926 393.567 178.596C393.445 179.265 393.587 179.957 393.96 180.52L414.824 212.016L465.628 175.759Z" fill="#9C9CA1"/>
<path opacity="0.1" d="M465.628 175.759L444.707 144.658C444.522 144.38 444.285 144.143 444.011 143.96C443.736 143.776 443.429 143.65 443.108 143.589C442.786 143.528 442.455 143.533 442.135 143.604C441.815 143.674 441.512 143.809 441.243 144L394.609 176.948C394.063 177.334 393.689 177.926 393.567 178.596C393.445 179.265 393.587 179.957 393.96 180.52L414.824 212.016L465.628 175.759Z" fill="black"/>
<path d="M466.139 175.833L445.218 144.731C445.033 144.454 444.795 144.216 444.52 144.033C444.246 143.849 443.938 143.724 443.616 143.663C443.294 143.601 442.963 143.606 442.643 143.677C442.322 143.748 442.018 143.882 441.749 144.074L395.12 177.043C394.575 177.429 394.2 178.021 394.077 178.69C393.955 179.359 394.094 180.051 394.466 180.614L415.33 212.126L466.139 175.833Z" fill="#9C9CA1"/>
<path d="M483.625 181.982L466.251 176.238L415.437 212.495L433.087 218.438C433.482 218.57 433.902 218.606 434.313 218.542C434.723 218.478 435.114 218.316 435.453 218.07L483.768 182.955C483.859 182.903 483.932 182.823 483.977 182.727C484.023 182.631 484.039 182.523 484.023 182.417C484.008 182.312 483.961 182.214 483.89 182.136C483.819 182.058 483.727 182.004 483.625 181.982Z" fill="#464A5F"/>
<path opacity="0.1" d="M483.625 181.982L466.251 176.238L415.437 212.495L433.087 218.438C433.482 218.57 433.902 218.606 434.313 218.542C434.723 218.478 435.114 218.316 435.453 218.07L483.768 182.955C483.859 182.903 483.932 182.823 483.977 182.727C484.023 182.631 484.039 182.523 484.023 182.417C484.008 182.312 483.961 182.214 483.89 182.136C483.819 182.058 483.727 182.004 483.625 181.982Z" fill="black"/>
<path d="M483.518 181.619L466.144 175.87L415.33 212.126L432.98 218.06C433.374 218.194 433.794 218.231 434.205 218.168C434.616 218.105 435.007 217.944 435.346 217.697L483.661 182.581C483.748 182.528 483.817 182.449 483.861 182.354C483.904 182.26 483.919 182.154 483.903 182.051C483.888 181.948 483.843 181.851 483.774 181.774C483.706 181.698 483.616 181.643 483.518 181.619V181.619Z" fill="#464A5F"/>
<g opacity="0.1">
<path opacity="0.1" d="M457.932 174.445L456.65 172.551C456.572 172.441 456.457 172.366 456.328 172.342C456.198 172.317 456.065 172.345 455.955 172.419L454.049 173.729C453.942 173.807 453.868 173.924 453.842 174.056C453.816 174.188 453.841 174.325 453.911 174.439L455.091 176.307C455.165 176.418 455.278 176.497 455.406 176.525C455.535 176.553 455.669 176.53 455.781 176.459L457.789 175.16C457.898 175.083 457.974 174.965 458.001 174.832C458.028 174.699 458.003 174.56 457.932 174.445V174.445Z" fill="black"/>
<path opacity="0.1" d="M454.508 176.885L453.221 174.997C453.144 174.887 453.028 174.812 452.899 174.787C452.769 174.763 452.636 174.791 452.526 174.865L450.625 176.186C450.517 176.262 450.442 176.379 450.415 176.511C450.389 176.643 450.413 176.781 450.482 176.896L451.662 178.763C451.735 178.876 451.848 178.955 451.976 178.984C452.105 179.014 452.239 178.991 452.352 178.921L454.365 177.621C454.422 177.583 454.471 177.534 454.509 177.476C454.547 177.418 454.574 177.353 454.587 177.284C454.6 177.216 454.6 177.145 454.587 177.076C454.573 177.008 454.547 176.943 454.508 176.885Z" fill="black"/>
<path opacity="0.1" d="M450.911 179.447L449.623 177.558C449.546 177.449 449.431 177.374 449.301 177.349C449.172 177.325 449.038 177.353 448.928 177.427L447.022 178.747C446.914 178.825 446.839 178.943 446.813 179.076C446.788 179.21 446.813 179.348 446.884 179.463L448.065 181.33C448.139 181.442 448.252 181.52 448.38 181.548C448.508 181.577 448.643 181.553 448.755 181.482L450.763 180.183C450.82 180.145 450.87 180.096 450.908 180.038C450.947 179.981 450.974 179.916 450.987 179.847C451.001 179.778 451.002 179.708 450.988 179.639C450.975 179.57 450.949 179.505 450.911 179.447V179.447Z" fill="black"/>
<path opacity="0.1" d="M447.268 182.045L445.98 180.151C445.903 180.043 445.789 179.969 445.66 179.945C445.532 179.92 445.4 179.947 445.29 180.02L443.384 181.345C443.277 181.423 443.203 181.54 443.177 181.672C443.152 181.804 443.176 181.942 443.246 182.056L444.426 183.923C444.499 184.034 444.611 184.112 444.738 184.142C444.866 184.171 444.999 184.149 445.111 184.081L447.124 182.776C447.181 182.738 447.229 182.689 447.267 182.631C447.304 182.574 447.33 182.509 447.344 182.441C447.357 182.373 447.357 182.303 447.344 182.235C447.331 182.167 447.305 182.103 447.268 182.045Z" fill="black"/>
<path opacity="0.1" d="M443.629 184.638L442.342 182.75C442.265 182.64 442.149 182.565 442.02 182.541C441.89 182.516 441.757 182.544 441.647 182.618L439.746 183.939C439.638 184.016 439.563 184.132 439.536 184.264C439.51 184.396 439.533 184.534 439.603 184.649L440.783 186.516C440.856 186.629 440.969 186.708 441.097 186.737C441.226 186.767 441.36 186.744 441.473 186.674L443.486 185.369C443.542 185.331 443.591 185.282 443.628 185.224C443.666 185.167 443.692 185.102 443.705 185.034C443.719 184.966 443.719 184.897 443.706 184.829C443.693 184.761 443.667 184.696 443.629 184.638Z" fill="black"/>
<path opacity="0.1" d="M440.149 187.468L438.55 185.122C438.533 185.096 438.511 185.074 438.486 185.056C438.46 185.039 438.432 185.027 438.402 185.021C438.372 185.015 438.341 185.016 438.311 185.022C438.281 185.029 438.253 185.041 438.228 185.059L435.888 186.684C435.862 186.701 435.84 186.723 435.822 186.749C435.805 186.775 435.793 186.805 435.787 186.836C435.781 186.866 435.78 186.898 435.786 186.929C435.792 186.96 435.804 186.99 435.821 187.016L437.288 189.335C437.321 189.389 437.374 189.426 437.434 189.44C437.494 189.454 437.557 189.443 437.61 189.409L440.083 187.831C440.113 187.814 440.138 187.79 440.158 187.761C440.178 187.733 440.192 187.7 440.198 187.665C440.204 187.631 440.203 187.595 440.195 187.561C440.186 187.527 440.171 187.495 440.149 187.468V187.468Z" fill="black"/>
<path opacity="0.1" d="M436.511 190.061L434.901 187.715C434.884 187.689 434.862 187.667 434.836 187.649C434.81 187.632 434.781 187.62 434.751 187.614C434.72 187.608 434.689 187.608 434.659 187.615C434.629 187.622 434.6 187.634 434.574 187.652L432.234 189.277C432.184 189.314 432.149 189.368 432.138 189.43C432.126 189.492 432.139 189.556 432.173 189.609L433.639 191.928C433.655 191.956 433.676 191.98 433.701 191.999C433.726 192.017 433.754 192.031 433.785 192.038C433.815 192.045 433.846 192.045 433.876 192.039C433.907 192.033 433.936 192.02 433.961 192.002L436.429 190.424C436.461 190.409 436.489 190.387 436.511 190.359C436.533 190.331 436.548 190.298 436.556 190.263C436.564 190.228 436.564 190.192 436.556 190.157C436.548 190.122 436.533 190.089 436.511 190.061V190.061Z" fill="black"/>
<path opacity="0.1" d="M433.287 192.36L431.687 190.035C431.651 189.984 431.598 189.95 431.538 189.939C431.478 189.928 431.416 189.942 431.365 189.977L429.025 191.597C428.974 191.633 428.938 191.689 428.926 191.752C428.913 191.814 428.925 191.88 428.958 191.934L430.425 194.253C430.459 194.306 430.512 194.342 430.572 194.356C430.632 194.37 430.694 194.359 430.747 194.327L433.22 192.749C433.254 192.732 433.284 192.708 433.307 192.677C433.33 192.646 433.345 192.61 433.351 192.572C433.358 192.534 433.355 192.495 433.344 192.458C433.333 192.421 433.313 192.387 433.287 192.36V192.36Z" fill="black"/>
<path opacity="0.1" d="M429.679 194.927L428.079 192.581C428.044 192.53 427.99 192.495 427.93 192.485C427.87 192.474 427.808 192.488 427.758 192.523L425.417 194.143C425.391 194.16 425.369 194.183 425.352 194.209C425.334 194.236 425.322 194.266 425.316 194.297C425.31 194.328 425.31 194.36 425.316 194.392C425.322 194.423 425.334 194.453 425.351 194.479L426.817 196.799C426.852 196.851 426.904 196.888 426.964 196.902C427.024 196.915 427.087 196.905 427.139 196.873L429.612 195.295C429.642 195.277 429.668 195.252 429.688 195.223C429.708 195.194 429.721 195.161 429.728 195.126C429.734 195.091 429.733 195.055 429.724 195.021C429.716 194.986 429.7 194.954 429.679 194.927V194.927Z" fill="black"/>
<path opacity="0.1" d="M426.184 197.399L424.584 195.053C424.567 195.027 424.546 195.004 424.52 194.987C424.495 194.97 424.466 194.958 424.436 194.952C424.406 194.946 424.376 194.946 424.346 194.953C424.316 194.959 424.288 194.972 424.262 194.99L421.922 196.615C421.896 196.632 421.874 196.654 421.857 196.68C421.839 196.706 421.827 196.736 421.821 196.766C421.815 196.797 421.815 196.829 421.821 196.86C421.827 196.891 421.839 196.92 421.856 196.946L423.322 199.266C423.356 199.319 423.408 199.357 423.469 199.371C423.529 199.385 423.592 199.373 423.644 199.34L426.117 197.762C426.147 197.744 426.173 197.721 426.193 197.692C426.212 197.663 426.226 197.631 426.232 197.596C426.239 197.562 426.238 197.526 426.229 197.492C426.221 197.458 426.205 197.426 426.184 197.399V197.399Z" fill="black"/>
<path opacity="0.1" d="M422.689 199.913L421.105 197.562C421.069 197.511 421.015 197.477 420.955 197.466C420.895 197.455 420.833 197.469 420.783 197.504L418.442 199.124C418.416 199.141 418.394 199.164 418.377 199.191C418.359 199.217 418.347 199.247 418.341 199.278C418.335 199.309 418.335 199.342 418.341 199.373C418.347 199.404 418.359 199.434 418.376 199.461L419.842 201.78C419.877 201.832 419.929 201.869 419.989 201.883C420.049 201.897 420.112 201.886 420.164 201.854L422.638 200.276C422.666 200.257 422.69 200.232 422.709 200.203C422.727 200.174 422.739 200.141 422.744 200.106C422.749 200.072 422.746 200.037 422.737 200.003C422.727 199.97 422.711 199.939 422.689 199.913Z" fill="black"/>
<path opacity="0.1" d="M419.193 202.401L417.594 200.055C417.577 200.029 417.555 200.006 417.53 199.989C417.504 199.972 417.476 199.96 417.446 199.954C417.416 199.948 417.385 199.948 417.355 199.955C417.325 199.961 417.297 199.974 417.272 199.992L414.932 201.607C414.906 201.624 414.884 201.646 414.866 201.672C414.849 201.698 414.837 201.727 414.831 201.758C414.824 201.789 414.824 201.821 414.83 201.852C414.836 201.882 414.848 201.912 414.865 201.938L416.332 204.258C416.365 204.311 416.418 204.349 416.478 204.362C416.538 204.376 416.601 204.365 416.654 204.331L419.127 202.753C419.155 202.736 419.179 202.712 419.198 202.685C419.217 202.657 419.23 202.625 419.236 202.592C419.242 202.559 419.242 202.525 419.234 202.492C419.227 202.459 419.213 202.428 419.193 202.401V202.401Z" fill="black"/>
<path opacity="0.1" d="M455.633 171.02L454.345 169.127C454.268 169.017 454.153 168.942 454.023 168.917C453.894 168.893 453.76 168.921 453.65 168.995L451.764 170.321C451.657 170.398 451.582 170.514 451.555 170.646C451.528 170.779 451.552 170.916 451.621 171.031L452.802 172.898C452.876 173.01 452.989 173.088 453.117 173.117C453.245 173.145 453.38 173.121 453.492 173.051L455.505 171.751C455.616 171.672 455.692 171.55 455.716 171.413C455.74 171.276 455.71 171.135 455.633 171.02Z" fill="black"/>
<path opacity="0.1" d="M450.599 163.536L449.312 161.631C449.235 161.523 449.12 161.449 448.992 161.425C448.864 161.4 448.731 161.427 448.622 161.5L446.716 162.82C446.608 162.897 446.533 163.014 446.506 163.146C446.48 163.278 446.503 163.416 446.573 163.53L447.753 165.398C447.826 165.51 447.939 165.59 448.067 165.619C448.196 165.648 448.33 165.626 448.443 165.555L450.456 164.256C450.567 164.179 450.644 164.061 450.67 163.926C450.697 163.791 450.672 163.651 450.599 163.536V163.536Z" fill="black"/>
<path opacity="0.1" d="M452.204 173.461L450.916 171.573C450.839 171.464 450.725 171.39 450.597 171.366C450.468 171.341 450.336 171.368 450.226 171.441L448.32 172.761C448.213 172.839 448.139 172.956 448.114 173.088C448.088 173.22 448.113 173.357 448.182 173.471L449.358 175.339C449.431 175.451 449.543 175.531 449.672 175.56C449.8 175.59 449.935 175.567 450.047 175.496L452.061 174.197C452.118 174.159 452.167 174.11 452.205 174.052C452.243 173.994 452.269 173.929 452.282 173.86C452.296 173.791 452.296 173.721 452.282 173.652C452.269 173.584 452.242 173.519 452.204 173.461Z" fill="black"/>
<path opacity="0.1" d="M448.606 176.023L447.319 174.134C447.242 174.024 447.126 173.949 446.997 173.925C446.867 173.9 446.734 173.928 446.624 174.003L444.723 175.307C444.614 175.384 444.538 175.502 444.511 175.635C444.484 175.769 444.509 175.907 444.58 176.023L445.76 177.89C445.834 178.002 445.947 178.08 446.075 178.108C446.204 178.137 446.338 178.113 446.45 178.042L448.463 176.743C448.574 176.666 448.651 176.548 448.678 176.413C448.704 176.278 448.679 176.138 448.606 176.023V176.023Z" fill="black"/>
<path opacity="0.1" d="M444.963 178.621L443.68 176.727C443.603 176.617 443.488 176.542 443.359 176.518C443.229 176.493 443.095 176.521 442.985 176.596L441.079 177.937C440.972 178.015 440.899 178.132 440.873 178.264C440.847 178.396 440.872 178.533 440.941 178.647L442.122 180.514C442.196 180.626 442.309 180.704 442.437 180.733C442.566 180.761 442.7 180.738 442.812 180.667L444.82 179.368C444.878 179.329 444.928 179.279 444.967 179.221C445.006 179.162 445.033 179.096 445.047 179.026C445.06 178.956 445.06 178.884 445.045 178.814C445.031 178.745 445.003 178.679 444.963 178.621Z" fill="black"/>
<path opacity="0.1" d="M447.252 166.097L445.965 164.209C445.888 164.1 445.773 164.026 445.645 164.002C445.517 163.978 445.384 164.004 445.275 164.077L443.369 165.398C443.261 165.474 443.186 165.591 443.159 165.723C443.133 165.855 443.156 165.993 443.226 166.108L444.406 167.975C444.479 168.088 444.592 168.167 444.72 168.196C444.849 168.226 444.983 168.203 445.096 168.133L447.109 166.834C447.166 166.795 447.215 166.746 447.253 166.688C447.291 166.63 447.318 166.565 447.331 166.496C447.344 166.428 447.344 166.357 447.331 166.289C447.317 166.22 447.29 166.155 447.252 166.097Z" fill="black"/>
<path opacity="0.1" d="M443.655 168.664L442.367 166.77C442.29 166.661 442.175 166.586 442.045 166.561C441.916 166.537 441.782 166.564 441.672 166.639L439.771 167.943C439.663 168.02 439.588 168.137 439.562 168.269C439.535 168.401 439.559 168.539 439.628 168.653L440.809 170.521C440.882 170.633 440.995 170.711 441.124 170.739C441.252 170.768 441.386 170.744 441.498 170.673L443.512 169.374C443.62 169.297 443.695 169.181 443.721 169.048C443.748 168.916 443.724 168.779 443.655 168.664Z" fill="black"/>
<path opacity="0.1" d="M440.011 171.257L438.724 169.369C438.647 169.259 438.534 169.184 438.405 169.159C438.277 169.133 438.144 169.16 438.034 169.232L436.128 170.573C436.021 170.651 435.947 170.768 435.921 170.9C435.896 171.032 435.92 171.169 435.99 171.283L437.17 173.151C437.243 173.263 437.356 173.343 437.484 173.372C437.613 173.401 437.747 173.379 437.86 173.308L439.868 172.004C439.927 171.966 439.977 171.916 440.016 171.857C440.055 171.798 440.082 171.732 440.095 171.662C440.109 171.592 440.108 171.52 440.094 171.451C440.079 171.381 440.051 171.315 440.011 171.257Z" fill="black"/>
<path opacity="0.1" d="M441.325 181.214L440.037 179.326C439.961 179.216 439.847 179.141 439.718 179.116C439.59 179.091 439.457 179.117 439.347 179.189L437.456 180.514C437.349 180.592 437.275 180.709 437.25 180.841C437.224 180.973 437.249 181.111 437.318 181.225L438.478 183.092C438.551 183.203 438.663 183.281 438.79 183.311C438.918 183.34 439.051 183.318 439.163 183.25L441.176 181.945C441.233 181.907 441.282 181.858 441.32 181.801C441.358 181.744 441.385 181.679 441.399 181.611C441.412 181.543 441.413 181.473 441.4 181.405C441.387 181.337 441.362 181.272 441.325 181.214Z" fill="black"/>
<path opacity="0.1" d="M437.686 183.807L436.399 181.919C436.322 181.809 436.206 181.734 436.077 181.71C435.947 181.685 435.814 181.713 435.704 181.787L433.803 183.108C433.695 183.184 433.62 183.301 433.593 183.433C433.567 183.565 433.591 183.703 433.66 183.818L434.84 185.685C434.913 185.798 435.026 185.877 435.154 185.906C435.283 185.936 435.417 185.913 435.53 185.843L437.543 184.544C437.6 184.505 437.649 184.456 437.687 184.398C437.725 184.34 437.752 184.275 437.765 184.206C437.778 184.138 437.778 184.067 437.765 183.999C437.751 183.93 437.725 183.865 437.686 183.807Z" fill="black"/>
<path opacity="0.1" d="M434.207 186.637L432.607 184.291C432.59 184.265 432.568 184.243 432.543 184.225C432.517 184.208 432.489 184.196 432.459 184.19C432.429 184.184 432.398 184.185 432.368 184.191C432.339 184.198 432.31 184.21 432.285 184.228L429.945 185.853C429.919 185.87 429.897 185.892 429.879 185.918C429.862 185.944 429.85 185.974 429.844 186.005C429.838 186.035 429.838 186.067 429.843 186.098C429.849 186.129 429.861 186.158 429.878 186.185L431.345 188.504C431.361 188.531 431.382 188.554 431.407 188.573C431.432 188.591 431.461 188.604 431.491 188.611C431.521 188.618 431.552 188.619 431.582 188.613C431.612 188.607 431.641 188.595 431.667 188.578L434.14 187C434.17 186.983 434.195 186.959 434.215 186.93C434.235 186.902 434.249 186.869 434.255 186.834C434.261 186.8 434.26 186.764 434.252 186.73C434.244 186.696 434.228 186.664 434.207 186.637V186.637Z" fill="black"/>
<path opacity="0.1" d="M430.982 188.936L429.383 186.584C429.347 186.534 429.293 186.499 429.233 186.488C429.173 186.478 429.111 186.491 429.061 186.527L426.725 188.147C426.674 188.183 426.639 188.238 426.626 188.301C426.614 188.364 426.626 188.429 426.659 188.483L428.126 190.803C428.16 190.855 428.212 190.892 428.272 190.906C428.332 190.919 428.395 190.909 428.447 190.876L430.921 189.299C430.951 189.282 430.978 189.259 430.999 189.23C431.019 189.201 431.033 189.168 431.039 189.133C431.045 189.098 431.043 189.061 431.033 189.027C431.023 188.993 431.006 188.962 430.982 188.936V188.936Z" fill="black"/>
<path opacity="0.1" d="M427.374 191.502L425.775 189.156C425.739 189.106 425.685 189.071 425.625 189.06C425.565 189.05 425.503 189.063 425.453 189.099L423.113 190.719C423.087 190.736 423.065 190.758 423.047 190.784C423.03 190.81 423.018 190.839 423.012 190.87C423.006 190.901 423.005 190.933 423.011 190.964C423.017 190.994 423.029 191.024 423.046 191.05L424.513 193.375C424.547 193.427 424.6 193.464 424.659 193.478C424.719 193.491 424.782 193.481 424.835 193.449L427.308 191.871C427.338 191.853 427.363 191.828 427.383 191.799C427.403 191.77 427.417 191.737 427.423 191.702C427.429 191.667 427.428 191.631 427.42 191.597C427.411 191.562 427.396 191.53 427.374 191.502V191.502Z" fill="black"/>
<path opacity="0.1" d="M423.879 193.996L422.28 191.65C422.263 191.624 422.241 191.601 422.215 191.584C422.19 191.567 422.162 191.555 422.132 191.549C422.102 191.543 422.071 191.543 422.041 191.55C422.011 191.556 421.983 191.569 421.958 191.587L419.617 193.191C419.592 193.208 419.569 193.23 419.552 193.256C419.535 193.282 419.523 193.311 419.516 193.342C419.51 193.373 419.51 193.405 419.516 193.436C419.522 193.467 419.534 193.496 419.551 193.522L421.018 195.842C421.051 195.895 421.104 195.933 421.164 195.946C421.224 195.96 421.287 195.949 421.339 195.915L423.813 194.337C423.839 194.32 423.862 194.297 423.88 194.27C423.898 194.243 423.91 194.213 423.917 194.181C423.923 194.149 423.923 194.116 423.916 194.084C423.91 194.053 423.897 194.022 423.879 193.996V193.996Z" fill="black"/>
<path opacity="0.1" d="M446.21 172.462L444.922 170.573C444.845 170.465 444.731 170.391 444.603 170.366C444.474 170.342 444.342 170.369 444.232 170.442L442.326 171.767C442.219 171.845 442.145 171.962 442.12 172.094C442.094 172.226 442.119 172.363 442.188 172.477L443.369 174.345C443.442 174.455 443.554 174.532 443.682 174.561C443.809 174.589 443.942 174.566 444.053 174.497L446.067 173.198C446.124 173.16 446.173 173.11 446.211 173.052C446.249 172.994 446.275 172.929 446.289 172.861C446.302 172.792 446.302 172.722 446.288 172.653C446.275 172.584 446.248 172.519 446.21 172.462Z" fill="black"/>
<path opacity="0.1" d="M442.566 175.06L441.279 173.166C441.201 173.057 441.086 172.982 440.957 172.957C440.827 172.933 440.694 172.961 440.584 173.035L438.683 174.36C438.575 174.437 438.5 174.554 438.473 174.686C438.447 174.818 438.47 174.956 438.54 175.071L439.72 176.938C439.793 177.051 439.906 177.13 440.034 177.159C440.163 177.189 440.297 177.166 440.41 177.096L442.423 175.791C442.479 175.753 442.528 175.704 442.565 175.646C442.603 175.589 442.629 175.524 442.642 175.456C442.656 175.388 442.656 175.318 442.643 175.25C442.63 175.182 442.604 175.118 442.566 175.06Z" fill="black"/>
<path opacity="0.1" d="M438.933 177.653L437.645 175.765C437.568 175.655 437.453 175.58 437.324 175.555C437.194 175.531 437.061 175.559 436.951 175.633L435.045 176.953C434.938 177.031 434.864 177.148 434.838 177.28C434.812 177.412 434.837 177.55 434.907 177.664L436.087 179.531C436.16 179.644 436.273 179.723 436.401 179.752C436.53 179.782 436.664 179.759 436.777 179.689L438.785 178.384C438.842 178.346 438.89 178.297 438.928 178.24C438.967 178.183 438.993 178.118 439.007 178.05C439.021 177.982 439.021 177.912 439.009 177.844C438.996 177.776 438.97 177.711 438.933 177.653V177.653Z" fill="black"/>
<path opacity="0.1" d="M435.29 180.246L434.002 178.358C433.925 178.249 433.811 178.175 433.683 178.151C433.554 178.127 433.422 178.154 433.312 178.226L431.406 179.547C431.299 179.624 431.225 179.741 431.2 179.873C431.174 180.005 431.199 180.143 431.268 180.257L432.449 182.145C432.522 182.256 432.633 182.335 432.761 182.364C432.888 182.393 433.021 182.371 433.133 182.303L435.147 181.004C435.207 180.965 435.258 180.915 435.298 180.855C435.338 180.796 435.366 180.728 435.379 180.657C435.392 180.586 435.391 180.513 435.376 180.442C435.361 180.371 435.331 180.305 435.29 180.246Z" fill="black"/>
<path opacity="0.1" d="M431.835 183.076L430.236 180.73C430.219 180.704 430.197 180.682 430.172 180.664C430.146 180.647 430.118 180.635 430.088 180.629C430.058 180.623 430.027 180.624 429.997 180.63C429.967 180.637 429.939 180.649 429.914 180.667L427.574 182.292C427.523 182.328 427.487 182.382 427.475 182.444C427.462 182.506 427.474 182.57 427.507 182.624L428.974 184.949C428.99 184.975 429.012 184.998 429.037 185.016C429.062 185.034 429.091 185.046 429.121 185.052C429.151 185.059 429.182 185.059 429.212 185.053C429.242 185.047 429.27 185.035 429.296 185.017L431.769 183.439C431.799 183.422 431.824 183.398 431.844 183.369C431.864 183.341 431.878 183.308 431.884 183.273C431.89 183.239 431.889 183.203 431.881 183.169C431.872 183.135 431.857 183.103 431.835 183.076Z" fill="black"/>
<path opacity="0.1" d="M428.591 185.375L426.991 183.023C426.954 182.972 426.9 182.938 426.839 182.927C426.778 182.916 426.715 182.93 426.664 182.966L424.329 184.586C424.278 184.622 424.242 184.677 424.23 184.74C424.217 184.803 424.229 184.868 424.262 184.922L425.729 187.242C425.763 187.295 425.815 187.333 425.875 187.347C425.936 187.36 425.999 187.349 426.051 187.316L428.524 185.738C428.554 185.72 428.58 185.696 428.599 185.668C428.619 185.639 428.633 185.606 428.639 185.572C428.645 185.537 428.644 185.502 428.636 185.468C428.628 185.434 428.612 185.402 428.591 185.375Z" fill="black"/>
<path opacity="0.1" d="M424.983 187.931L423.384 185.58C423.347 185.529 423.292 185.494 423.231 185.483C423.17 185.473 423.108 185.486 423.056 185.522L420.716 187.142C420.666 187.179 420.631 187.234 420.619 187.297C420.606 187.359 420.617 187.424 420.65 187.479L422.121 189.798C422.155 189.851 422.207 189.889 422.268 189.903C422.328 189.917 422.391 189.905 422.443 189.872L424.911 188.294C424.942 188.278 424.969 188.255 424.99 188.226C425.011 188.198 425.025 188.165 425.032 188.13C425.039 188.095 425.038 188.059 425.03 188.025C425.021 187.99 425.005 187.958 424.983 187.931V187.931Z" fill="black"/>
<path opacity="0.1" d="M421.488 190.435L419.888 188.089C419.871 188.062 419.848 188.04 419.823 188.023C419.797 188.005 419.768 187.993 419.737 187.987C419.707 187.981 419.676 187.982 419.646 187.988C419.615 187.995 419.587 188.008 419.561 188.026L417.221 189.651C417.171 189.687 417.136 189.742 417.125 189.804C417.113 189.866 417.126 189.93 417.159 189.982L418.626 192.302C418.642 192.329 418.663 192.353 418.688 192.372C418.713 192.391 418.741 192.404 418.771 192.411C418.802 192.418 418.833 192.418 418.863 192.412C418.894 192.406 418.922 192.394 418.948 192.375L421.416 190.798C421.447 190.781 421.474 190.758 421.495 190.73C421.515 190.702 421.53 190.669 421.537 190.634C421.544 190.599 421.543 190.563 421.534 190.528C421.526 190.494 421.51 190.462 421.488 190.435V190.435Z" fill="black"/>
<path opacity="0.1" d="M420.384 196.484L418.785 194.138C418.749 194.087 418.695 194.052 418.635 194.042C418.575 194.031 418.513 194.045 418.463 194.08L416.122 195.7C416.097 195.717 416.074 195.739 416.057 195.765C416.04 195.791 416.028 195.82 416.021 195.851C416.015 195.882 416.015 195.914 416.021 195.945C416.027 195.976 416.039 196.005 416.056 196.031L417.522 198.356C417.557 198.408 417.609 198.445 417.669 198.459C417.729 198.472 417.792 198.462 417.844 198.43L420.318 196.852C420.347 196.834 420.373 196.81 420.393 196.78C420.413 196.751 420.426 196.718 420.433 196.683C420.439 196.648 420.438 196.612 420.43 196.578C420.421 196.543 420.406 196.511 420.384 196.484V196.484Z" fill="black"/>
<path opacity="0.1" d="M416.889 198.977L415.289 196.631C415.272 196.605 415.25 196.582 415.225 196.565C415.2 196.548 415.171 196.536 415.141 196.53C415.111 196.524 415.08 196.524 415.05 196.531C415.021 196.537 414.992 196.55 414.967 196.568L412.627 198.193C412.601 198.21 412.579 198.232 412.562 198.258C412.544 198.284 412.532 198.313 412.526 198.344C412.52 198.375 412.52 198.407 412.526 198.438C412.532 198.469 412.543 198.498 412.56 198.524L414.027 200.844C414.061 200.897 414.113 200.935 414.173 200.949C414.234 200.962 414.297 200.951 414.349 200.918L416.822 199.34C416.852 199.322 416.878 199.298 416.897 199.27C416.917 199.241 416.931 199.209 416.937 199.174C416.944 199.139 416.942 199.104 416.934 199.07C416.926 199.036 416.91 199.004 416.889 198.977Z" fill="black"/>
<path opacity="0.1" d="M422.377 184.07L420.844 181.861C420.796 181.792 420.723 181.746 420.642 181.731C420.561 181.716 420.478 181.735 420.409 181.782L418.202 183.313C418.168 183.336 418.138 183.366 418.115 183.401C418.092 183.436 418.076 183.476 418.068 183.518C418.06 183.559 418.06 183.602 418.068 183.644C418.076 183.685 418.092 183.725 418.115 183.76L419.495 185.943C419.516 185.979 419.544 186.01 419.578 186.035C419.611 186.059 419.649 186.077 419.689 186.086C419.729 186.095 419.77 186.096 419.811 186.089C419.851 186.081 419.89 186.066 419.924 186.043L422.259 184.533C422.298 184.512 422.332 184.483 422.359 184.447C422.386 184.412 422.405 184.371 422.416 184.328C422.427 184.284 422.43 184.239 422.423 184.195C422.416 184.15 422.4 184.108 422.377 184.07V184.07Z" fill="black"/>
<path opacity="0.1" d="M418.882 186.563L417.374 184.354C417.351 184.319 417.322 184.289 417.287 184.266C417.253 184.243 417.214 184.227 417.174 184.219C417.134 184.211 417.092 184.212 417.052 184.221C417.012 184.229 416.974 184.246 416.94 184.27L414.732 185.827C414.698 185.85 414.669 185.879 414.646 185.914C414.623 185.949 414.607 185.988 414.599 186.029C414.591 186.07 414.591 186.113 414.599 186.154C414.607 186.195 414.623 186.234 414.645 186.269L416.025 188.457C416.07 188.528 416.14 188.577 416.22 188.596C416.3 188.615 416.384 188.601 416.454 188.557L418.79 187.047C418.829 187.024 418.863 186.992 418.89 186.954C418.916 186.916 418.934 186.873 418.943 186.827C418.952 186.781 418.951 186.734 418.94 186.688C418.93 186.643 418.91 186.6 418.882 186.563V186.563Z" fill="black"/>
<path opacity="0.1" d="M415.386 189.057L413.879 186.842C413.831 186.773 413.758 186.727 413.677 186.712C413.596 186.697 413.513 186.716 413.445 186.763L411.237 188.294C411.203 188.317 411.173 188.347 411.15 188.383C411.127 188.418 411.111 188.457 411.103 188.499C411.095 188.54 411.095 188.583 411.103 188.625C411.111 188.666 411.127 188.706 411.15 188.741L412.53 190.924C412.551 190.96 412.579 190.991 412.613 191.016C412.646 191.04 412.684 191.058 412.724 191.067C412.764 191.077 412.805 191.078 412.846 191.07C412.886 191.063 412.925 191.047 412.959 191.024L415.294 189.514C415.331 189.491 415.362 189.461 415.386 189.425C415.411 189.389 415.428 189.349 415.436 189.306C415.445 189.263 415.445 189.219 415.436 189.176C415.428 189.133 415.411 189.092 415.386 189.057V189.057Z" fill="black"/>
<path opacity="0.1" d="M411.937 191.613L410.338 189.262C410.302 189.211 410.248 189.177 410.188 189.166C410.128 189.155 410.066 189.169 410.016 189.204L407.675 190.824C407.624 190.86 407.588 190.916 407.576 190.978C407.564 191.041 407.575 191.106 407.609 191.16L409.076 193.48C409.11 193.532 409.162 193.569 409.222 193.583C409.282 193.596 409.345 193.586 409.397 193.554L411.871 191.976C411.902 191.96 411.929 191.937 411.95 191.908C411.971 191.88 411.985 191.846 411.992 191.811C411.998 191.776 411.997 191.74 411.987 191.705C411.978 191.671 411.96 191.639 411.937 191.613V191.613Z" fill="black"/>
<path opacity="0.1" d="M453.297 167.338L451.913 165.313C451.835 165.204 451.719 165.13 451.59 165.107C451.46 165.083 451.327 165.112 451.218 165.187L445.811 169.085C445.707 169.163 445.635 169.279 445.61 169.41C445.585 169.541 445.61 169.677 445.679 169.789L446.982 171.862C447.019 171.919 447.067 171.969 447.123 172.007C447.179 172.045 447.242 172.071 447.308 172.085C447.374 172.098 447.442 172.097 447.508 172.084C447.574 172.07 447.636 172.043 447.692 172.004L453.18 168.054C453.285 167.973 453.356 167.853 453.378 167.72C453.4 167.587 453.371 167.45 453.297 167.338V167.338Z" fill="black"/>
<path opacity="0.1" d="M417.982 192.849L416.286 190.382C416.268 190.356 416.246 190.333 416.22 190.316C416.194 190.298 416.165 190.287 416.134 190.281C416.104 190.276 416.072 190.277 416.042 190.284C416.012 190.292 415.984 190.305 415.959 190.324L410.123 194.532C410.073 194.567 410.039 194.621 410.028 194.682C410.016 194.743 410.028 194.806 410.062 194.858L411.656 197.399C411.673 197.426 411.695 197.45 411.721 197.468C411.748 197.486 411.777 197.499 411.808 197.506C411.839 197.512 411.871 197.512 411.902 197.505C411.933 197.499 411.962 197.486 411.988 197.467L417.921 193.191C417.973 193.154 418.008 193.097 418.02 193.033C418.031 192.969 418.018 192.903 417.982 192.849V192.849Z" fill="black"/>
<path opacity="0.1" d="M436.547 173.982L434.983 171.625C434.948 171.574 434.895 171.538 434.835 171.526C434.775 171.515 434.712 171.527 434.661 171.562L421.702 180.567C421.651 180.602 421.616 180.657 421.603 180.719C421.591 180.781 421.603 180.845 421.636 180.898L423.235 183.423C423.252 183.451 423.275 183.474 423.301 183.493C423.327 183.511 423.356 183.524 423.387 183.53C423.418 183.536 423.45 183.536 423.481 183.53C423.512 183.523 423.542 183.51 423.567 183.492L436.486 174.318C436.511 174.3 436.533 174.277 436.55 174.251C436.567 174.224 436.578 174.194 436.584 174.163C436.59 174.132 436.589 174.1 436.583 174.069C436.577 174.037 436.564 174.008 436.547 173.982V173.982Z" fill="black"/>
</g>
<path d="M458.274 174.508L456.987 172.614C456.91 172.504 456.794 172.429 456.665 172.405C456.535 172.38 456.402 172.408 456.292 172.482L454.391 173.808C454.283 173.885 454.208 174.001 454.181 174.134C454.155 174.266 454.179 174.403 454.248 174.518L455.428 176.385C455.501 176.498 455.614 176.577 455.742 176.607C455.871 176.636 456.005 176.613 456.118 176.543L458.131 175.239C458.188 175.2 458.236 175.151 458.273 175.094C458.311 175.036 458.337 174.972 458.351 174.904C458.364 174.836 458.364 174.766 458.351 174.698C458.338 174.63 458.312 174.565 458.274 174.508Z" fill="#464A5F"/>
<path d="M454.83 176.948L453.543 175.06C453.466 174.951 453.351 174.877 453.223 174.853C453.095 174.829 452.962 174.856 452.853 174.928L450.947 176.249C450.839 176.325 450.764 176.442 450.737 176.574C450.711 176.706 450.734 176.844 450.804 176.959L451.984 178.826C452.057 178.939 452.17 179.018 452.298 179.047C452.427 179.077 452.561 179.054 452.674 178.984L454.687 177.685C454.744 177.646 454.793 177.597 454.831 177.539C454.869 177.481 454.896 177.416 454.909 177.347C454.922 177.279 454.922 177.208 454.909 177.14C454.895 177.071 454.869 177.006 454.83 176.948Z" fill="#464A5F"/>
<path d="M451.253 179.515L449.966 177.627C449.888 177.517 449.773 177.442 449.644 177.417C449.514 177.393 449.381 177.421 449.271 177.495L447.37 178.821C447.262 178.898 447.187 179.014 447.16 179.146C447.134 179.278 447.157 179.416 447.227 179.531L448.407 181.398C448.481 181.51 448.594 181.588 448.722 181.617C448.851 181.645 448.985 181.621 449.097 181.551L451.11 180.251C451.167 180.213 451.216 180.164 451.254 180.106C451.292 180.048 451.319 179.983 451.332 179.914C451.345 179.846 451.345 179.775 451.332 179.706C451.318 179.638 451.292 179.573 451.253 179.515Z" fill="#464A5F"/>
<path d="M447.605 182.108L446.317 180.215C446.24 180.106 446.126 180.032 445.998 180.008C445.869 179.983 445.737 180.01 445.627 180.083L443.721 181.409C443.665 181.448 443.617 181.498 443.58 181.556C443.543 181.614 443.518 181.68 443.505 181.748C443.493 181.817 443.494 181.887 443.508 181.955C443.522 182.023 443.55 182.088 443.588 182.145L444.769 184.012C444.842 184.125 444.954 184.204 445.083 184.234C445.211 184.263 445.346 184.24 445.459 184.17L447.467 182.866C447.526 182.827 447.577 182.776 447.617 182.716C447.656 182.656 447.683 182.589 447.696 182.518C447.709 182.447 447.708 182.374 447.692 182.303C447.676 182.233 447.647 182.166 447.605 182.108Z" fill="#464A5F"/>
<path d="M443.967 184.701L442.679 182.813C442.602 182.705 442.488 182.631 442.359 182.606C442.231 182.582 442.099 182.609 441.989 182.681L440.083 184.002C439.976 184.079 439.902 184.196 439.876 184.328C439.851 184.461 439.875 184.598 439.945 184.712L441.12 186.579C441.193 186.692 441.306 186.771 441.434 186.8C441.563 186.83 441.698 186.807 441.81 186.737L443.824 185.432C443.88 185.394 443.928 185.345 443.966 185.287C444.003 185.23 444.029 185.165 444.043 185.097C444.056 185.029 444.056 184.96 444.043 184.892C444.03 184.824 444.004 184.759 443.967 184.701Z" fill="#464A5F"/>
<path d="M440.487 187.531L438.887 185.185C438.87 185.159 438.848 185.137 438.823 185.119C438.798 185.102 438.769 185.09 438.739 185.084C438.709 185.078 438.678 185.079 438.649 185.085C438.619 185.092 438.59 185.104 438.565 185.122L436.225 186.747C436.199 186.764 436.177 186.787 436.16 186.813C436.142 186.839 436.13 186.868 436.124 186.899C436.118 186.93 436.118 186.961 436.124 186.992C436.13 187.023 436.141 187.053 436.159 187.079L437.625 189.398C437.659 189.452 437.711 189.489 437.771 189.503C437.832 189.517 437.895 189.506 437.947 189.472L440.42 187.894C440.45 187.877 440.476 187.853 440.495 187.824C440.515 187.796 440.529 187.763 440.535 187.728C440.542 187.694 440.54 187.658 440.532 187.624C440.524 187.59 440.508 187.558 440.487 187.531V187.531Z" fill="#464A5F"/>
<path d="M436.848 190.124L435.249 187.778C435.231 187.752 435.209 187.73 435.183 187.712C435.157 187.695 435.128 187.683 435.098 187.677C435.068 187.671 435.037 187.671 435.006 187.678C434.976 187.685 434.947 187.697 434.922 187.715L432.587 189.341C432.561 189.358 432.539 189.38 432.521 189.406C432.504 189.432 432.492 189.461 432.486 189.492C432.48 189.523 432.479 189.555 432.485 189.585C432.491 189.616 432.503 189.646 432.52 189.672L433.987 191.997C434.003 192.023 434.025 192.046 434.05 192.064C434.075 192.082 434.104 192.094 434.134 192.101C434.164 192.107 434.195 192.107 434.225 192.101C434.255 192.095 434.283 192.083 434.309 192.065L436.782 190.487C436.811 190.469 436.836 190.445 436.855 190.417C436.875 190.388 436.888 190.355 436.894 190.321C436.9 190.287 436.9 190.252 436.892 190.218C436.884 190.184 436.869 190.152 436.848 190.124V190.124Z" fill="#464A5F"/>
<path d="M433.624 192.423L432.024 190.072C431.989 190.021 431.935 189.986 431.875 189.976C431.815 189.965 431.753 189.979 431.703 190.014L429.362 191.613C429.311 191.649 429.275 191.704 429.263 191.767C429.25 191.83 429.262 191.895 429.296 191.949L430.762 194.269C430.797 194.321 430.849 194.358 430.909 194.372C430.969 194.385 431.032 194.375 431.084 194.343L433.557 192.765C433.584 192.747 433.607 192.724 433.625 192.697C433.643 192.671 433.655 192.64 433.661 192.608C433.668 192.576 433.667 192.543 433.661 192.512C433.655 192.48 433.642 192.45 433.624 192.423V192.423Z" fill="#464A5F"/>
<path d="M430.016 194.995L428.417 192.665C428.381 192.614 428.327 192.58 428.267 192.569C428.207 192.558 428.145 192.572 428.095 192.607L425.754 194.227C425.729 194.244 425.706 194.267 425.689 194.294C425.671 194.32 425.659 194.35 425.653 194.381C425.647 194.412 425.647 194.445 425.653 194.476C425.659 194.507 425.671 194.537 425.688 194.564L427.155 196.883C427.189 196.935 427.241 196.972 427.301 196.986C427.361 197 427.424 196.989 427.476 196.957L429.95 195.379C429.983 195.362 430.012 195.338 430.034 195.307C430.056 195.277 430.071 195.242 430.077 195.204C430.084 195.167 430.082 195.128 430.071 195.092C430.06 195.056 430.042 195.022 430.016 194.995V194.995Z" fill="#464A5F"/>
<path d="M426.521 197.483L424.922 195.137C424.905 195.111 424.883 195.088 424.857 195.071C424.832 195.054 424.803 195.042 424.773 195.036C424.743 195.03 424.713 195.03 424.683 195.037C424.653 195.043 424.625 195.056 424.6 195.074L422.259 196.699C422.233 196.716 422.211 196.738 422.194 196.764C422.177 196.79 422.164 196.819 422.158 196.85C422.152 196.881 422.152 196.913 422.158 196.944C422.164 196.975 422.176 197.004 422.193 197.03L423.659 199.35C423.676 199.377 423.697 199.4 423.722 199.419C423.747 199.437 423.775 199.45 423.805 199.457C423.835 199.464 423.866 199.464 423.897 199.459C423.927 199.453 423.956 199.441 423.981 199.424L426.455 197.846C426.484 197.828 426.51 197.805 426.53 197.776C426.55 197.747 426.563 197.715 426.569 197.68C426.576 197.646 426.575 197.61 426.566 197.576C426.558 197.542 426.542 197.51 426.521 197.483V197.483Z" fill="#464A5F"/>
<path d="M423.026 199.976L421.426 197.625C421.39 197.574 421.337 197.54 421.277 197.529C421.217 197.518 421.155 197.532 421.104 197.567L418.764 199.187C418.713 199.223 418.677 199.279 418.665 199.341C418.652 199.404 418.664 199.47 418.698 199.524L420.164 201.843C420.199 201.895 420.251 201.932 420.311 201.946C420.371 201.96 420.433 201.949 420.486 201.917L422.959 200.339C422.989 200.322 423.015 200.298 423.035 200.269C423.054 200.241 423.068 200.208 423.074 200.173C423.081 200.139 423.08 200.103 423.071 200.069C423.063 200.035 423.047 200.003 423.026 199.976V199.976Z" fill="#464A5F"/>
<path d="M419.531 202.464L417.931 200.118C417.914 200.092 417.892 200.07 417.867 200.052C417.841 200.035 417.813 200.023 417.783 200.017C417.753 200.011 417.722 200.012 417.692 200.018C417.663 200.025 417.634 200.037 417.609 200.055L415.269 201.68C415.243 201.697 415.221 201.719 415.203 201.745C415.186 201.771 415.174 201.801 415.168 201.832C415.162 201.862 415.162 201.894 415.167 201.925C415.173 201.956 415.185 201.985 415.202 202.012L416.669 204.331C416.685 204.358 416.706 204.381 416.731 204.4C416.756 204.418 416.785 204.431 416.815 204.438C416.845 204.445 416.876 204.446 416.906 204.44C416.936 204.434 416.965 204.422 416.991 204.405L419.464 202.827C419.494 202.81 419.519 202.786 419.539 202.757C419.559 202.729 419.573 202.696 419.579 202.661C419.585 202.627 419.584 202.591 419.576 202.557C419.568 202.523 419.552 202.491 419.531 202.464V202.464Z" fill="#464A5F"/>
<path d="M455.97 171.099L454.682 169.206C454.605 169.097 454.491 169.023 454.363 168.999C454.234 168.974 454.102 169.001 453.992 169.074L452.086 170.4C451.979 170.477 451.905 170.594 451.88 170.726C451.854 170.858 451.878 170.996 451.948 171.11L453.123 172.977C453.197 173.09 453.309 173.169 453.438 173.198C453.566 173.228 453.701 173.205 453.813 173.135L455.827 171.83C455.883 171.792 455.931 171.743 455.969 171.685C456.006 171.628 456.033 171.563 456.046 171.495C456.059 171.427 456.059 171.357 456.046 171.289C456.033 171.221 456.007 171.157 455.97 171.099Z" fill="#464A5F"/>
<path d="M450.937 163.599L449.649 161.71C449.572 161.602 449.458 161.528 449.329 161.503C449.201 161.479 449.069 161.506 448.959 161.579L447.053 162.899C446.946 162.977 446.872 163.094 446.846 163.226C446.821 163.358 446.845 163.495 446.915 163.609L448.095 165.476C448.168 165.588 448.28 165.666 448.407 165.695C448.535 165.725 448.668 165.703 448.78 165.634L450.793 164.335C450.85 164.297 450.899 164.247 450.937 164.189C450.975 164.131 451.002 164.066 451.015 163.998C451.029 163.929 451.028 163.859 451.015 163.79C451.001 163.721 450.975 163.656 450.937 163.599Z" fill="#464A5F"/>
<path d="M452.541 173.524L451.253 171.625C451.176 171.517 451.062 171.443 450.934 171.418C450.806 171.394 450.673 171.421 450.563 171.494L448.657 172.814C448.55 172.892 448.477 173.009 448.451 173.141C448.425 173.273 448.45 173.41 448.519 173.524L449.7 175.391C449.773 175.503 449.884 175.581 450.012 175.61C450.139 175.64 450.272 175.618 450.385 175.549L452.398 174.25C452.51 174.173 452.588 174.053 452.615 173.917C452.641 173.781 452.615 173.64 452.541 173.524Z" fill="#464A5F"/>
<path d="M448.944 176.086L447.676 174.197C447.599 174.089 447.485 174.015 447.357 173.99C447.229 173.966 447.096 173.993 446.987 174.066L445.08 175.386C444.972 175.464 444.897 175.582 444.871 175.715C444.846 175.848 444.871 175.987 444.942 176.101L446.118 177.969C446.192 178.08 446.305 178.159 446.433 178.187C446.561 178.215 446.696 178.192 446.808 178.121L448.821 176.822C448.876 176.782 448.923 176.731 448.959 176.673C448.996 176.614 449.02 176.549 449.031 176.48C449.043 176.412 449.041 176.341 449.026 176.274C449.011 176.206 448.983 176.142 448.944 176.086Z" fill="#464A5F"/>
<path d="M445.305 178.684L444.018 176.79C443.941 176.681 443.825 176.606 443.696 176.581C443.566 176.557 443.433 176.584 443.323 176.659L441.422 177.984C441.314 178.061 441.239 178.178 441.212 178.31C441.186 178.442 441.209 178.58 441.279 178.694L442.459 180.562C442.532 180.674 442.645 180.754 442.773 180.783C442.902 180.813 443.036 180.79 443.149 180.72L445.162 179.415C445.218 179.377 445.267 179.328 445.304 179.27C445.342 179.213 445.368 179.148 445.381 179.08C445.395 179.012 445.395 178.942 445.382 178.874C445.369 178.806 445.343 178.742 445.305 178.684Z" fill="#464A5F"/>
<path d="M447.59 166.16L446.302 164.261C446.225 164.153 446.111 164.079 445.982 164.054C445.854 164.03 445.722 164.057 445.612 164.13L443.706 165.45C443.599 165.528 443.525 165.645 443.499 165.777C443.474 165.909 443.498 166.046 443.568 166.16L444.748 168.027C444.821 168.139 444.933 168.217 445.06 168.246C445.188 168.276 445.321 168.254 445.433 168.185L447.446 166.886C447.558 166.809 447.636 166.689 447.663 166.553C447.69 166.417 447.663 166.276 447.59 166.16V166.16Z" fill="#464A5F"/>
<path d="M443.992 168.727L442.704 166.833C442.627 166.725 442.513 166.651 442.385 166.626C442.257 166.602 442.124 166.629 442.015 166.702L440.109 168.027C440.001 168.104 439.926 168.221 439.899 168.353C439.872 168.485 439.896 168.623 439.965 168.737L441.146 170.605C441.219 170.717 441.331 170.797 441.46 170.826C441.588 170.856 441.723 170.833 441.836 170.762L443.849 169.458C443.905 169.42 443.953 169.371 443.991 169.313C444.029 169.256 444.055 169.191 444.068 169.123C444.081 169.055 444.082 168.985 444.069 168.917C444.055 168.849 444.029 168.785 443.992 168.727Z" fill="#464A5F"/>
<path d="M440.354 171.32L439.066 169.432C438.989 169.322 438.874 169.247 438.744 169.223C438.615 169.198 438.481 169.226 438.371 169.3L436.47 170.621C436.362 170.697 436.287 170.814 436.261 170.946C436.234 171.078 436.258 171.216 436.327 171.331L437.507 173.203C437.581 173.316 437.693 173.395 437.822 173.425C437.95 173.454 438.085 173.431 438.197 173.361L440.206 172.057C440.263 172.019 440.312 171.97 440.351 171.912C440.389 171.854 440.416 171.789 440.43 171.72C440.444 171.652 440.444 171.581 440.431 171.512C440.418 171.444 440.392 171.378 440.354 171.32V171.32Z" fill="#464A5F"/>
<path d="M441.662 181.277L440.374 179.389C440.297 179.28 440.183 179.206 440.055 179.182C439.926 179.157 439.794 179.184 439.684 179.257L437.778 180.567C437.671 180.645 437.597 180.762 437.572 180.894C437.546 181.026 437.571 181.163 437.64 181.277L438.821 183.144C438.894 183.256 439.005 183.334 439.133 183.363C439.26 183.393 439.393 183.371 439.505 183.302L441.519 181.998C441.629 181.921 441.706 181.802 441.733 181.667C441.76 181.533 441.734 181.393 441.662 181.277V181.277Z" fill="#464A5F"/>
<path d="M438.024 183.87L436.736 181.982C436.659 181.873 436.545 181.799 436.416 181.775C436.288 181.751 436.156 181.778 436.046 181.85L434.14 183.197C434.032 183.274 433.957 183.39 433.931 183.523C433.904 183.655 433.928 183.792 433.997 183.907L435.177 185.774C435.25 185.887 435.363 185.966 435.491 185.996C435.62 186.025 435.755 186.002 435.867 185.932L437.881 184.633C437.941 184.595 437.993 184.544 438.034 184.484C438.074 184.424 438.102 184.356 438.115 184.284C438.129 184.212 438.128 184.138 438.112 184.067C438.096 183.996 438.066 183.929 438.024 183.87Z" fill="#464A5F"/>
<path d="M434.544 186.7L432.944 184.354C432.927 184.328 432.905 184.306 432.88 184.288C432.855 184.271 432.826 184.259 432.796 184.253C432.766 184.247 432.735 184.248 432.705 184.254C432.676 184.261 432.647 184.273 432.622 184.291L430.302 185.916C430.277 185.933 430.254 185.956 430.237 185.982C430.22 186.007 430.208 186.037 430.201 186.068C430.195 186.099 430.195 186.13 430.201 186.161C430.207 186.192 430.219 186.222 430.236 186.248L431.702 188.567C431.719 188.594 431.74 188.618 431.765 188.636C431.79 188.654 431.818 188.667 431.848 188.674C431.878 188.681 431.909 188.682 431.94 188.676C431.97 188.67 431.999 188.658 432.024 188.641L434.498 187.063C434.525 187.043 434.548 187.018 434.566 186.988C434.583 186.959 434.594 186.926 434.599 186.892C434.603 186.858 434.6 186.823 434.591 186.79C434.581 186.757 434.565 186.726 434.544 186.7V186.7Z" fill="#464A5F"/>
<path d="M431.324 188.983L429.725 186.632C429.688 186.581 429.634 186.546 429.573 186.535C429.512 186.525 429.449 186.538 429.398 186.574L427.058 188.194C427.007 188.231 426.972 188.286 426.96 188.349C426.948 188.411 426.959 188.476 426.991 188.531L428.463 190.85C428.496 190.903 428.549 190.941 428.609 190.955C428.669 190.969 428.732 190.957 428.785 190.924L431.253 189.346C431.284 189.33 431.31 189.307 431.331 189.278C431.352 189.25 431.367 189.217 431.374 189.182C431.38 189.147 431.38 189.111 431.371 189.077C431.363 189.042 431.347 189.01 431.324 188.983V188.983Z" fill="#464A5F"/>
<path d="M427.712 191.571L426.112 189.22C426.076 189.169 426.023 189.134 425.963 189.124C425.903 189.113 425.841 189.126 425.79 189.162L423.45 190.782C423.399 190.818 423.363 190.873 423.351 190.936C423.338 190.999 423.35 191.064 423.384 191.118L424.85 193.438C424.884 193.49 424.937 193.527 424.997 193.541C425.057 193.554 425.119 193.544 425.172 193.512L427.645 191.934C427.676 191.918 427.704 191.895 427.725 191.866C427.746 191.838 427.76 191.804 427.766 191.769C427.773 191.734 427.771 191.698 427.762 191.663C427.752 191.629 427.735 191.597 427.712 191.571V191.571Z" fill="#464A5F"/>
<path d="M424.221 194.059L422.637 191.713C422.62 191.687 422.599 191.664 422.573 191.647C422.548 191.63 422.519 191.618 422.489 191.612C422.459 191.606 422.428 191.606 422.399 191.613C422.369 191.619 422.341 191.632 422.315 191.65L419.975 193.275C419.924 193.31 419.889 193.365 419.876 193.427C419.864 193.489 419.875 193.553 419.909 193.606L421.375 195.926C421.409 195.979 421.461 196.017 421.522 196.031C421.582 196.044 421.645 196.033 421.697 195.999L424.17 194.422C424.2 194.403 424.225 194.379 424.243 194.35C424.262 194.32 424.275 194.287 424.28 194.253C424.285 194.218 424.282 194.182 424.272 194.149C424.262 194.115 424.245 194.084 424.221 194.059V194.059Z" fill="#464A5F"/>
<path d="M446.547 172.53L445.264 170.636C445.187 170.526 445.072 170.452 444.943 170.427C444.813 170.403 444.679 170.43 444.569 170.505L442.663 171.83C442.556 171.908 442.482 172.025 442.457 172.157C442.431 172.289 442.456 172.426 442.525 172.54L443.706 174.408C443.78 174.52 443.893 174.598 444.021 174.626C444.15 174.655 444.284 174.631 444.396 174.56L446.404 173.261C446.46 173.223 446.508 173.174 446.546 173.116C446.584 173.059 446.61 172.994 446.623 172.926C446.636 172.858 446.637 172.788 446.623 172.72C446.61 172.652 446.584 172.588 446.547 172.53V172.53Z" fill="#464A5F"/>
<path d="M442.909 175.123L441.621 173.235C441.545 173.125 441.431 173.05 441.303 173.025C441.174 173 441.041 173.026 440.931 173.098L439.025 174.423C438.918 174.501 438.844 174.618 438.819 174.75C438.793 174.882 438.817 175.02 438.887 175.134L440.068 177.001C440.141 177.112 440.252 177.19 440.379 177.22C440.507 177.249 440.64 177.227 440.752 177.159L442.766 175.854C442.822 175.816 442.87 175.767 442.908 175.709C442.945 175.652 442.972 175.587 442.985 175.519C442.998 175.451 442.998 175.381 442.985 175.313C442.972 175.245 442.946 175.181 442.909 175.123Z" fill="#464A5F"/>
<path d="M439.27 177.716L437.967 175.833C437.89 175.723 437.775 175.648 437.646 175.624C437.516 175.599 437.382 175.627 437.272 175.702L435.412 177.017C435.305 177.093 435.23 177.21 435.203 177.342C435.176 177.474 435.2 177.612 435.269 177.727L436.45 179.594C436.523 179.707 436.635 179.786 436.764 179.815C436.892 179.845 437.027 179.822 437.14 179.752L439.153 178.453C439.208 178.412 439.254 178.361 439.29 178.302C439.326 178.243 439.35 178.178 439.361 178.109C439.371 178.041 439.369 177.971 439.354 177.904C439.338 177.836 439.31 177.772 439.27 177.716V177.716Z" fill="#464A5F"/>
<path d="M435.627 180.309L434.339 178.421C434.262 178.313 434.148 178.239 434.02 178.214C433.891 178.19 433.759 178.217 433.649 178.289L431.743 179.61C431.636 179.687 431.562 179.804 431.537 179.936C431.511 180.069 431.536 180.206 431.605 180.32L432.786 182.187C432.859 182.298 432.97 182.377 433.098 182.406C433.225 182.435 433.358 182.414 433.471 182.345L435.484 181.046C435.541 181.007 435.59 180.958 435.628 180.9C435.666 180.842 435.692 180.777 435.706 180.708C435.719 180.64 435.719 180.569 435.705 180.501C435.692 180.432 435.665 180.367 435.627 180.309Z" fill="#464A5F"/>
<path d="M432.152 183.139L430.553 180.793C430.535 180.767 430.513 180.744 430.487 180.727C430.461 180.71 430.432 180.698 430.402 180.692C430.372 180.686 430.34 180.686 430.31 180.693C430.28 180.699 430.251 180.712 430.226 180.73L427.885 182.355C427.834 182.391 427.799 182.445 427.786 182.507C427.774 182.569 427.786 182.633 427.819 182.687L429.285 185.012C429.302 185.038 429.324 185.061 429.35 185.079C429.376 185.097 429.405 185.11 429.435 185.116C429.466 185.122 429.497 185.122 429.527 185.116C429.558 185.11 429.587 185.098 429.613 185.08L432.081 183.502C432.111 183.485 432.137 183.462 432.157 183.433C432.178 183.405 432.192 183.372 432.198 183.338C432.205 183.303 432.205 183.267 432.197 183.233C432.189 183.199 432.173 183.167 432.152 183.139Z" fill="#464A5F"/>
<path d="M428.928 185.438L427.328 183.092C427.311 183.066 427.29 183.043 427.264 183.026C427.239 183.009 427.21 182.997 427.18 182.991C427.15 182.985 427.119 182.985 427.09 182.992C427.06 182.998 427.032 183.011 427.006 183.029L424.681 184.649C424.63 184.685 424.594 184.74 424.582 184.803C424.57 184.866 424.581 184.931 424.615 184.985L426.082 187.305C426.116 187.357 426.168 187.394 426.228 187.408C426.288 187.421 426.351 187.411 426.403 187.379L428.877 185.801C428.905 185.782 428.929 185.757 428.948 185.728C428.966 185.699 428.978 185.666 428.983 185.631C428.988 185.597 428.986 185.562 428.976 185.528C428.966 185.495 428.95 185.464 428.928 185.438V185.438Z" fill="#464A5F"/>
<path d="M425.32 188.01L423.721 185.659C423.684 185.607 423.629 185.573 423.569 185.562C423.508 185.551 423.445 185.565 423.394 185.601L421.058 187.221C421.007 187.257 420.972 187.312 420.959 187.375C420.947 187.438 420.959 187.503 420.992 187.557L422.459 189.877C422.492 189.93 422.545 189.968 422.605 189.982C422.665 189.996 422.728 189.984 422.781 189.951L425.254 188.373C425.283 188.355 425.309 188.332 425.329 188.303C425.349 188.274 425.362 188.242 425.369 188.207C425.375 188.173 425.374 188.137 425.366 188.103C425.357 188.069 425.342 188.037 425.32 188.01V188.01Z" fill="#464A5F"/>
<path d="M421.825 190.498L420.226 188.152C420.208 188.126 420.186 188.103 420.16 188.086C420.134 188.068 420.105 188.056 420.075 188.05C420.044 188.045 420.013 188.045 419.983 188.051C419.953 188.058 419.924 188.071 419.898 188.089L417.563 189.714C417.537 189.731 417.515 189.753 417.498 189.779C417.481 189.805 417.468 189.834 417.462 189.865C417.456 189.896 417.456 189.928 417.462 189.959C417.468 189.99 417.48 190.019 417.497 190.045L418.963 192.37C418.98 192.397 419.001 192.42 419.027 192.437C419.052 192.455 419.08 192.468 419.11 192.474C419.14 192.48 419.171 192.481 419.201 192.475C419.231 192.468 419.26 192.456 419.285 192.439L421.759 190.861C421.788 190.843 421.813 190.819 421.832 190.79C421.851 190.761 421.865 190.729 421.871 190.695C421.877 190.66 421.876 190.625 421.868 190.591C421.86 190.557 421.846 190.525 421.825 190.498V190.498Z" fill="#464A5F"/>
<path d="M420.726 196.552L419.127 194.201C419.09 194.149 419.036 194.115 418.975 194.104C418.914 194.093 418.851 194.107 418.8 194.143L416.459 195.763C416.408 195.799 416.373 195.854 416.36 195.917C416.348 195.98 416.36 196.045 416.393 196.099L417.86 198.419C417.894 198.471 417.946 198.508 418.006 198.522C418.066 198.535 418.129 198.525 418.182 198.493L420.655 196.915C420.686 196.898 420.712 196.875 420.733 196.847C420.754 196.819 420.769 196.786 420.776 196.751C420.782 196.716 420.782 196.68 420.773 196.646C420.764 196.611 420.749 196.579 420.726 196.552V196.552Z" fill="#464A5F"/>
<path d="M417.231 199.04L415.632 196.694C415.614 196.668 415.592 196.645 415.566 196.628C415.54 196.61 415.511 196.598 415.481 196.593C415.45 196.587 415.419 196.587 415.389 196.594C415.359 196.6 415.33 196.613 415.305 196.631L412.964 198.256C412.913 198.291 412.878 198.346 412.865 198.408C412.853 198.47 412.865 198.534 412.898 198.587L414.364 200.907C414.381 200.934 414.403 200.958 414.428 200.976C414.454 200.994 414.482 201.007 414.513 201.014C414.543 201.021 414.575 201.022 414.605 201.016C414.636 201.01 414.665 200.998 414.691 200.981L417.159 199.403C417.19 199.387 417.217 199.363 417.238 199.335C417.259 199.307 417.273 199.274 417.28 199.239C417.287 199.204 417.286 199.168 417.278 199.134C417.269 199.099 417.253 199.067 417.231 199.04V199.04Z" fill="#464A5F"/>
<path d="M422.714 184.138L421.207 181.924C421.158 181.855 421.086 181.809 421.005 181.794C420.924 181.779 420.841 181.798 420.772 181.845L418.549 183.376C418.481 183.424 418.434 183.498 418.418 183.581C418.401 183.665 418.417 183.751 418.463 183.823L419.842 186.011C419.888 186.082 419.959 186.132 420.041 186.15C420.122 186.167 420.207 186.152 420.277 186.106L422.607 184.596C422.644 184.574 422.677 184.545 422.703 184.51C422.729 184.475 422.748 184.434 422.758 184.391C422.768 184.348 422.769 184.304 422.762 184.26C422.754 184.217 422.738 184.175 422.714 184.138V184.138Z" fill="#464A5F"/>
<path d="M419.219 186.626L417.711 184.417C417.688 184.382 417.659 184.352 417.624 184.329C417.59 184.306 417.552 184.29 417.511 184.282C417.471 184.274 417.429 184.275 417.389 184.284C417.349 184.292 417.311 184.309 417.277 184.333L415.069 185.869C415.001 185.916 414.954 185.989 414.938 186.072C414.922 186.154 414.938 186.24 414.983 186.311L416.362 188.499C416.408 188.57 416.479 188.62 416.56 188.639C416.641 188.657 416.726 188.643 416.797 188.599L419.132 187.089C419.167 187.065 419.198 187.034 419.221 186.997C419.245 186.961 419.261 186.92 419.269 186.877C419.277 186.833 419.277 186.789 419.268 186.746C419.26 186.703 419.243 186.663 419.219 186.626V186.626Z" fill="#464A5F"/>
<path d="M415.724 189.12L414.191 186.905C414.143 186.837 414.072 186.79 413.992 186.776C413.911 186.761 413.829 186.779 413.761 186.826L411.549 188.357C411.48 188.405 411.433 188.479 411.417 188.562C411.401 188.646 411.417 188.733 411.462 188.804L412.842 190.992C412.888 191.063 412.959 191.113 413.04 191.131C413.121 191.149 413.206 191.133 413.276 191.087L415.611 189.577C415.649 189.556 415.682 189.527 415.709 189.492C415.735 189.457 415.754 189.417 415.765 189.374C415.775 189.331 415.777 189.286 415.77 189.242C415.763 189.198 415.747 189.157 415.724 189.12V189.12Z" fill="#464A5F"/>
<path d="M412.279 191.681L410.68 189.33C410.643 189.279 410.589 189.244 410.528 189.234C410.467 189.223 410.404 189.237 410.353 189.272L408.013 190.892C407.962 190.929 407.928 190.985 407.916 191.048C407.905 191.111 407.917 191.175 407.951 191.229L409.418 193.548C409.451 193.602 409.504 193.639 409.564 193.653C409.624 193.667 409.687 193.656 409.74 193.622L412.213 192.044C412.243 192.027 412.268 192.003 412.288 191.974C412.308 191.946 412.322 191.913 412.328 191.878C412.334 191.844 412.333 191.808 412.325 191.774C412.316 191.74 412.301 191.708 412.279 191.681V191.681Z" fill="#464A5F"/>
<path d="M453.64 167.417L452.275 165.387C452.198 165.278 452.082 165.204 451.952 165.18C451.823 165.157 451.69 165.186 451.58 165.261L446.143 169.158C446.039 169.237 445.967 169.353 445.942 169.484C445.917 169.615 445.942 169.75 446.011 169.863L447.319 171.935C447.356 171.993 447.404 172.042 447.46 172.08C447.516 172.119 447.579 172.145 447.645 172.158C447.711 172.171 447.779 172.171 447.845 172.157C447.911 172.143 447.973 172.116 448.029 172.078L453.512 168.127C453.617 168.048 453.689 167.93 453.713 167.798C453.737 167.666 453.711 167.53 453.64 167.417Z" fill="#464A5F"/>
<path d="M418.319 192.912L416.623 190.445C416.606 190.419 416.583 190.396 416.557 190.379C416.531 190.361 416.502 190.35 416.471 190.344C416.441 190.339 416.41 190.34 416.379 190.347C416.349 190.355 416.321 190.368 416.296 190.387L410.46 194.595C410.41 194.631 410.376 194.686 410.364 194.748C410.353 194.81 410.365 194.874 410.399 194.926L411.998 197.462C412.015 197.489 412.038 197.513 412.064 197.531C412.09 197.55 412.119 197.562 412.15 197.569C412.181 197.575 412.213 197.575 412.244 197.568C412.275 197.562 412.305 197.549 412.331 197.53L418.263 193.254C418.314 193.216 418.349 193.159 418.359 193.095C418.37 193.031 418.355 192.965 418.319 192.912V192.912Z" fill="#464A5F"/>
<path d="M436.884 174.045L435.351 171.704C435.316 171.651 435.262 171.615 435.201 171.602C435.14 171.589 435.077 171.601 435.024 171.636L422.07 180.63C422.044 180.647 422.022 180.669 422.005 180.695C421.988 180.721 421.975 180.751 421.969 180.781C421.963 180.812 421.963 180.844 421.969 180.875C421.975 180.906 421.987 180.935 422.004 180.961L423.598 183.486C423.615 183.514 423.637 183.537 423.663 183.556C423.69 183.574 423.719 183.587 423.75 183.593C423.781 183.6 423.813 183.599 423.844 183.593C423.875 183.586 423.904 183.573 423.93 183.555L436.848 174.381C436.896 174.341 436.926 174.284 436.933 174.221C436.94 174.158 436.922 174.095 436.884 174.045V174.045Z" fill="#464A5F"/>
<path opacity="0.1" d="M436.945 166.008L430.057 155.703C429.866 155.417 429.574 155.22 429.242 155.155C428.911 155.09 428.569 155.162 428.289 155.356L409.316 168.469C409.176 168.566 409.056 168.691 408.963 168.836C408.87 168.981 408.806 169.143 408.774 169.314C408.743 169.484 408.744 169.66 408.778 169.83C408.812 170 408.878 170.161 408.973 170.305L415.994 180.904C416.089 181.048 416.21 181.171 416.351 181.266C416.492 181.362 416.65 181.428 416.816 181.46C416.982 181.492 417.152 181.49 417.317 181.454C417.482 181.418 417.639 181.349 417.778 181.251L436.618 167.833C436.756 167.735 436.875 167.611 436.966 167.466C437.057 167.321 437.12 167.16 437.15 166.99C437.18 166.82 437.178 166.646 437.143 166.478C437.108 166.309 437.041 166.149 436.945 166.008V166.008Z" fill="black"/>
<path d="M437.262 166.071L430.374 155.767C430.183 155.481 429.89 155.285 429.559 155.22C429.228 155.155 428.886 155.227 428.606 155.419L409.658 168.543C409.517 168.639 409.397 168.763 409.303 168.908C409.209 169.053 409.144 169.215 409.112 169.386C409.08 169.557 409.081 169.732 409.115 169.903C409.149 170.073 409.215 170.235 409.311 170.379L416.311 180.967C416.406 181.111 416.527 181.234 416.668 181.329C416.809 181.425 416.967 181.491 417.133 181.523C417.298 181.555 417.469 181.553 417.634 181.518C417.799 181.482 417.956 181.412 418.095 181.314L436.945 167.896C437.083 167.798 437.2 167.672 437.29 167.527C437.381 167.382 437.442 167.22 437.472 167.051C437.501 166.881 437.498 166.708 437.462 166.539C437.426 166.371 437.358 166.212 437.262 166.071Z" fill="#939498"/>
<path d="M479.977 182.724L465.362 177.706L418.488 211.222L432.995 216.087C433.386 216.218 433.802 216.254 434.209 216.192C434.616 216.13 435.003 215.972 435.341 215.729L480.109 183.686C480.197 183.633 480.266 183.555 480.31 183.461C480.354 183.367 480.37 183.262 480.356 183.159C480.341 183.056 480.298 182.96 480.23 182.882C480.163 182.805 480.075 182.749 479.977 182.724V182.724Z" fill="#1C79BC"/>
</g>
<defs>
<clipPath id="clip0">
<rect width="554" height="399" fill="white"/>
</clipPath>
</defs>
</svg>
