<svg width="262" height="308" viewBox="0 0 262 308" fill="none" xmlns="http://www.w3.org/2000/svg">
<path d="M256.959 188.133H116.825C115.706 188.132 114.633 187.687 113.842 186.896C113.051 186.105 112.606 185.033 112.604 183.915V136.671C112.606 135.553 113.051 134.481 113.842 133.69C114.633 132.899 115.706 132.455 116.825 132.453H256.959C258.078 132.455 259.151 132.899 259.942 133.69C260.734 134.481 261.179 135.553 261.18 136.671V183.915C261.179 185.033 260.734 186.105 259.942 186.896C259.151 187.687 258.078 188.132 256.959 188.133Z" fill="#E2E2E2"/>
<path d="M171.697 145.108H134.553V149.326H171.697V145.108Z" fill="#4474EF"/>
<path d="M220.659 150.17C222.058 150.17 223.192 149.036 223.192 147.639C223.192 146.241 222.058 145.108 220.659 145.108C219.261 145.108 218.127 146.241 218.127 147.639C218.127 149.036 219.261 150.17 220.659 150.17Z" fill="#4474EF"/>
<path d="M229.101 150.17C230.5 150.17 231.634 149.036 231.634 147.639C231.634 146.241 230.5 145.108 229.101 145.108C227.702 145.108 226.569 146.241 226.569 147.639C226.569 149.036 227.702 150.17 229.101 150.17Z" fill="#4474EF"/>
<path d="M237.543 150.17C238.942 150.17 240.075 149.036 240.075 147.639C240.075 146.241 238.942 145.108 237.543 145.108C236.144 145.108 235.01 146.241 235.01 147.639C235.01 149.036 236.144 150.17 237.543 150.17Z" fill="#4474EF"/>
<path d="M256.959 248.03H116.825C115.706 248.029 114.633 247.584 113.842 246.794C113.051 246.003 112.606 244.931 112.604 243.812V196.569C112.606 195.451 113.051 194.379 113.842 193.588C114.633 192.797 115.706 192.352 116.825 192.351H256.959C258.078 192.352 259.151 192.797 259.942 193.588C260.734 194.379 261.179 195.451 261.18 196.569V243.812C261.179 244.931 260.734 246.003 259.942 246.794C259.151 247.584 258.078 248.029 256.959 248.03V248.03Z" fill="#E2E2E2"/>
<path d="M171.697 205.005H134.553V209.224H171.697V205.005Z" fill="#4474EF"/>
<path d="M220.659 210.067C222.058 210.067 223.192 208.934 223.192 207.536C223.192 206.139 222.058 205.005 220.659 205.005C219.261 205.005 218.127 206.139 218.127 207.536C218.127 208.934 219.261 210.067 220.659 210.067Z" fill="#4474EF"/>
<path d="M229.101 210.067C230.5 210.067 231.634 208.934 231.634 207.536C231.634 206.139 230.5 205.005 229.101 205.005C227.702 205.005 226.569 206.139 226.569 207.536C226.569 208.934 227.702 210.067 229.101 210.067Z" fill="#4474EF"/>
<path d="M237.543 210.067C238.942 210.067 240.075 208.934 240.075 207.536C240.075 206.139 238.942 205.005 237.543 205.005C236.144 205.005 235.01 206.139 235.01 207.536C235.01 208.934 236.144 210.067 237.543 210.067Z" fill="#4474EF"/>
<path d="M256.959 307.928H116.825C115.706 307.927 114.633 307.482 113.842 306.691C113.051 305.901 112.606 304.828 112.604 303.71V256.467C112.606 255.348 113.051 254.276 113.842 253.486C114.633 252.695 115.706 252.25 116.825 252.249H256.959C258.078 252.25 259.151 252.695 259.942 253.486C260.734 254.276 261.179 255.348 261.18 256.467V303.71C261.179 304.828 260.734 305.901 259.942 306.691C259.151 307.482 258.078 307.927 256.959 307.928V307.928Z" fill="#E2E2E2"/>
<path d="M171.697 264.903H134.553V269.121H171.697V264.903Z" fill="#4474EF"/>
<path d="M220.659 269.965C222.058 269.965 223.192 268.832 223.192 267.434C223.192 266.036 222.058 264.903 220.659 264.903C219.261 264.903 218.127 266.036 218.127 267.434C218.127 268.832 219.261 269.965 220.659 269.965Z" fill="#4474EF"/>
<path d="M229.101 269.965C230.5 269.965 231.634 268.832 231.634 267.434C231.634 266.036 230.5 264.903 229.101 264.903C227.702 264.903 226.569 266.036 226.569 267.434C226.569 268.832 227.702 269.965 229.101 269.965Z" fill="#4474EF"/>
<path d="M237.543 269.965C238.942 269.965 240.075 268.832 240.075 267.434C240.075 266.036 238.942 264.903 237.543 264.903C236.144 264.903 235.01 266.036 235.01 267.434C235.01 268.832 236.144 269.965 237.543 269.965Z" fill="#4474EF"/>
<path d="M204.13 86.3207L203.975 86.2063L203.971 86.2035C203.772 86.0552 203.544 85.9476 203.303 85.887C203.061 85.8264 202.81 85.8139 202.564 85.8502C202.318 85.8866 202.081 85.9711 201.867 86.0988C201.654 86.2266 201.467 86.3952 201.319 86.595L169.777 129.036H166.306V128.221C166.306 128.02 166.226 127.828 166.084 127.685C165.942 127.543 165.749 127.463 165.548 127.463H163.478C163.276 127.463 163.084 127.543 162.941 127.685C162.799 127.828 162.719 128.02 162.719 128.221V129.036H161.521V128.221C161.521 128.02 161.441 127.828 161.299 127.685C161.156 127.543 160.964 127.463 160.762 127.463H158.692C158.491 127.463 158.298 127.543 158.156 127.685C158.013 127.828 157.934 128.02 157.934 128.221V129.036H156.739V128.221C156.739 128.02 156.659 127.828 156.517 127.685C156.375 127.543 156.182 127.463 155.981 127.463H153.91C153.709 127.463 153.516 127.543 153.374 127.685C153.232 127.828 153.152 128.02 153.152 128.221V129.036H151.954V128.221C151.954 128.02 151.874 127.828 151.731 127.685C151.589 127.543 151.396 127.463 151.195 127.463H149.125C148.924 127.463 148.731 127.543 148.588 127.685C148.446 127.828 148.366 128.02 148.366 128.221V129.036H147.172V128.221C147.172 128.02 147.092 127.828 146.95 127.685C146.807 127.543 146.615 127.463 146.413 127.463H144.343C144.243 127.463 144.145 127.483 144.053 127.521C143.961 127.559 143.877 127.615 143.807 127.685C143.736 127.756 143.68 127.839 143.642 127.931C143.604 128.023 143.585 128.122 143.585 128.221V129.036H142.386V128.221C142.386 128.02 142.306 127.828 142.164 127.685C142.022 127.543 141.829 127.463 141.628 127.463H139.557C139.356 127.463 139.163 127.543 139.021 127.685C138.879 127.828 138.799 128.02 138.799 128.221V129.036H137.601V128.221C137.601 128.02 137.521 127.828 137.379 127.685C137.236 127.543 137.043 127.463 136.842 127.463H134.772C134.571 127.463 134.378 127.543 134.236 127.685C134.093 127.828 134.013 128.02 134.013 128.221V129.036H132.819V128.221C132.819 128.02 132.739 127.828 132.597 127.685C132.455 127.543 132.262 127.463 132.061 127.463H129.99C129.789 127.463 129.596 127.543 129.454 127.685C129.312 127.828 129.232 128.02 129.232 128.221V129.036H128.033V128.221C128.033 128.02 127.954 127.828 127.811 127.685C127.669 127.543 127.476 127.463 127.275 127.463H125.205C125.003 127.463 124.811 127.543 124.668 127.685C124.526 127.828 124.446 128.02 124.446 128.221V129.036H123.252V128.221C123.252 128.02 123.172 127.828 123.03 127.685C122.887 127.543 122.695 127.463 122.493 127.463H120.423C120.222 127.463 120.029 127.543 119.887 127.685C119.744 127.828 119.665 128.02 119.664 128.221V129.036H118.163C117.914 129.036 117.667 129.085 117.437 129.18C117.207 129.276 116.998 129.415 116.822 129.591C116.646 129.767 116.506 129.976 116.411 130.206C116.316 130.436 116.267 130.682 116.267 130.931V132.738C116.267 132.987 116.316 133.234 116.411 133.464C116.506 133.693 116.646 133.902 116.822 134.078C116.998 134.254 117.207 134.394 117.437 134.489C117.667 134.584 117.914 134.633 118.163 134.633H169.462C170.112 134.633 170.741 134.409 171.245 133.999C171.749 133.59 172.096 133.019 172.228 132.383L172.248 132.397L204.519 88.9754L204.522 88.9716C204.822 88.5681 204.949 88.0622 204.875 87.5651C204.802 87.068 204.534 86.6204 204.13 86.3207V86.3207Z" fill="#3F3D56"/>
<path d="M4.78632 291.834L11.1583 295.093L26.7678 272.082L17.3638 267.273L4.78632 291.834Z" fill="#FFB7B7"/>
<path d="M4.22547 288.924L16.7743 295.342L16.7748 295.342C18.8956 296.427 20.4983 298.309 21.2305 300.575C21.9626 302.841 21.7642 305.304 20.6789 307.424L20.5459 307.684L0 297.176L4.22547 288.924Z" fill="#2F2E41"/>
<path d="M78.3793 300.75H85.5375L88.9427 273.159H78.3782L78.3793 300.75Z" fill="#FFB7B7"/>
<path d="M76.5535 298.414L90.65 298.414H90.6506C93.033 298.414 95.3179 299.36 97.0026 301.043C98.6873 302.727 99.6338 305.01 99.634 307.391V307.683L76.5539 307.684L76.5535 298.414Z" fill="#2F2E41"/>
<path d="M44.8975 75.6959C44.8975 75.6959 40.1043 72.026 40.1043 80.9903L39.3474 110.614L47.7987 138.598L52.7181 129.522L50.6999 109.857L44.8975 75.6959Z" fill="#2F2E41"/>
<path d="M96.1715 156.721C96.1715 156.721 101.73 183.772 94.6893 205.972L90.7985 291.329L76.5323 290.218L71.5298 226.895L66.7126 195.418L56.7077 224.117L23.7286 284.848L8.53598 272.998C8.53598 272.998 25.3718 227.09 37.8096 217.452L44.0475 146.451L96.1715 156.721Z" fill="#2F2E41"/>
<path d="M93.5342 31.0699C97.8433 23.1921 94.9463 13.3149 87.0634 9.00859C79.1805 4.70223 69.2969 7.59744 64.9878 15.4752C60.6786 23.3529 63.5757 33.2301 71.4585 37.5364C79.3414 41.8428 89.225 38.9476 93.5342 31.0699Z" fill="#FFB7B7"/>
<path d="M78.1098 26.7205C80.0598 26.974 81.5307 24.9802 82.2129 23.1371C82.8952 21.2941 83.415 19.1484 85.1103 18.1528C87.4265 16.7926 90.39 18.4286 93.0387 17.9798C96.0299 17.473 97.9748 14.305 98.1272 11.2769C98.2796 8.2488 97.0738 5.33641 95.8907 2.54454L95.4776 6.0142C95.5328 4.83825 95.2852 3.66779 94.7585 2.61481C94.2317 1.56182 93.4433 0.661507 92.4689 0L93.0013 5.09119C92.888 4.38879 92.637 3.71566 92.2627 3.11043C91.8885 2.5052 91.3983 1.9798 90.8203 1.56436C90.2423 1.14893 89.588 0.851649 88.8948 0.689584C88.2015 0.527518 87.4831 0.503859 86.7807 0.619961L86.8646 3.65349C83.4097 3.24294 79.9247 2.83181 76.4596 3.14459C72.9945 3.45736 69.5052 4.55298 66.879 6.83351C62.9505 10.2448 61.5158 15.862 61.9975 21.0406C62.4791 26.2192 64.6183 31.0842 66.8477 35.7837C67.4086 36.9661 68.1845 38.3004 69.4852 38.451C70.6539 38.5864 71.7233 37.6101 72.0866 36.4918C72.3665 35.3444 72.3557 34.1453 72.055 33.0031C71.7263 31.2576 71.312 29.4734 71.621 27.7243C71.9301 25.9752 73.1892 24.2468 74.9535 24.0324C76.7179 23.8181 78.5232 25.8335 77.6749 27.3943L78.1098 26.7205Z" fill="#2F2E41"/>
<path d="M97.1781 163.955L42.8798 160.454L46.9668 143.533L96.5939 154.62L97.1781 163.955Z" fill="#B1B1B1"/>
<path d="M63.6922 45.4423L67.0979 40.717C67.0979 40.717 70.9046 42.0098 81.0993 47.081L81.8196 51.5082L99.5156 160.28L67.3502 158.893L58.591 158.707L55.7245 152.286L52.1898 158.571L43.6361 158.389L34.9326 153.347L43.51 127.127L46.285 103.176L41.9963 80.6121C41.9963 80.6121 36.5996 59.8919 57.3852 48.7198L63.6922 45.4423Z" fill="#2F2E41"/>
<path d="M136.191 127.783C135.403 127.983 134.581 128.008 133.783 127.856C132.984 127.705 132.229 127.38 131.57 126.905C130.911 126.429 130.364 125.816 129.967 125.106C129.571 124.397 129.336 123.61 129.277 122.8L110.194 117.692L117.871 110.88L134.815 116.775C136.184 116.767 137.507 117.26 138.536 118.162C139.564 119.064 140.226 120.312 140.396 121.668C140.565 123.025 140.231 124.397 139.456 125.524C138.681 126.651 137.519 127.455 136.191 127.783V127.783Z" fill="#FFB7B7"/>
<path d="M127.644 124.899C127.242 125.118 126.8 125.249 126.344 125.285C125.889 125.321 125.431 125.261 125 125.109L93.6075 113.202C85.949 110.489 79.5373 105.088 75.565 98.0046L62.4739 74.6669C61.5547 73.6414 60.8468 72.4449 60.3908 71.1457C59.9348 69.8465 59.7396 68.4702 59.8164 67.0956C59.8933 65.721 60.2406 64.375 60.8385 63.1347C61.4365 61.8943 62.2733 60.784 63.3011 59.8672C64.3289 58.9504 65.5275 58.2452 66.8283 57.7918C68.1292 57.3385 69.5067 57.1459 70.8821 57.2252C72.2575 57.3045 73.6037 57.654 74.8438 58.2538C76.0838 58.8536 77.1934 59.6918 78.1089 60.7206L100.768 96.611L129.283 113.318C129.842 113.685 130.275 114.214 130.523 114.834C130.771 115.455 130.823 116.136 130.671 116.787L129.253 122.792C129.101 123.436 128.755 124.018 128.264 124.461C128.075 124.631 127.867 124.778 127.644 124.899V124.899Z" fill="#2F2E41"/>
</svg>
